<?xml version="1.0" encoding="UTF-8"?><svg id="Layer_1" xmlns="http://www.w3.org/2000/svg" viewBox="0 0 453.45 346.51"><path d="m26.53,26.52v53.33h26.74v26.62h26.61v26.67h53.34v-26.45h53.37v26.52h-26.46v79.97h26.42v26.64h-53.18v-26.44h-53.31v26.46h-26.71v26.69h-26.66v53.32h26.39v26.64h-26.44v-26.46H.05v-80.02h26.43v-26.72h26.59v-80.03h-26.44v-26.62H0V26.58h26.6l-.06-.06Z"/><path d="m426.83,320.14v-53.43h-26.57v-26.7h-26.73v-26.56h-53.33v26.39h-53.33v-26.52h26.47v-80.02h-26.47v-26.58h53.22v26.37h53.34v-26.48h26.72v-26.71h26.58V26.64h-26.41V.03h26.5v26.44h26.64v80.07h-26.52v26.61h-26.59v80.02h26.48v26.7h26.6v80.18c-8.92,0-17.79,0-26.67,0,0,0,.08.08.08.08Z"/><path d="m26.6,26.58V0h26.55v26.52c-8.9,0-17.76,0-26.61,0,0,0,.06.06.06.06Z"/><path d="m213.54,26.64h26.42v26.49h-26.42v-26.49Z"/><path d="m213.22,186.49h-26.41v-26.49h26.41v26.49Z"/><path d="m266.6,186.49h-26.41v-26.49h26.41v26.49Z"/><path d="m239.99,293.44v26.4h-26.5v-26.4h26.5Z"/><path d="m426.83,320.14s-.08-.08-.08-.08c0,8.78,0,17.57,0,26.45h-26.39v-26.38c.34-.06.74-.2,1.14-.2,8.03-.01,16.06-.01,24.08,0,.42,0,.83.13,1.25.2Z"/></svg>