<?xml version="1.0" encoding="UTF-8"?>
<svg id="uuid-52177e8d-d4c9-4249-8686-d52cbfcf95be" data-name="Layer 1" xmlns="http://www.w3.org/2000/svg" viewBox="0 0 389.16 389.16">
  <defs>
    <style>
      .uuid-e92dbef8-9192-4457-a817-1d6d6da02fff {
        fill: none;
        stroke: lime;
      }

      .uuid-e92dbef8-9192-4457-a817-1d6d6da02fff, .uuid-97ff4547-a493-405f-98d6-1d0d6003b9c2 {
        stroke-miterlimit: 10;
      }

      .uuid-97ff4547-a493-405f-98d6-1d0d6003b9c2 {
        stroke: #262261;
        stroke-width: 2px;
      }

      .uuid-a8e7a8a7-d841-4680-bb4e-ac06cbd8ed4b {
        fill: #262261;
      }
    </style>
  </defs>
  <circle class="uuid-97ff4547-a493-405f-98d6-1d0d6003b9c2" cx="194.58" cy="194.58" r="193.58"/>
  <circle class="uuid-e92dbef8-9192-4457-a817-1d6d6da02fff" cx="194.58" cy="194.58" r="161.12"/>
  <path class="uuid-a8e7a8a7-d841-4680-bb4e-ac06cbd8ed4b" d="M191.54,251.19c-3.83-12.21-6.77-23.64-10.99-34.58-8.19-21.23-9.94-43.43-11.15-65.76-.6-11.11-1.45-11.54-12.56-12.78-8.93-1-17.7-3.49-26.54-5.3-2.18-.45-4.38-.81-7.51-1.38,.47,4.81,1.17,8.72,1.16,12.63-.04,10.31,.08,20.65-.79,30.9-.63,7.44-6.19,12.77-11.23,12.5-5.21-.28-11.88-7.14-12.34-13.56-.39-5.44-.46-11.04,.34-16.42,2.3-15.48-1.15-29.71-8.24-43.33-1.75-3.36-3.39-6.78-5.13-10.15-2.23-4.31-1.42-8,1.8-11.56,3.35-3.7,6.95-4.05,11.33-2.07,13.05,5.89,26.2,11.55,39.25,17.44,6.61,2.98,13.15,3.95,20.19,1.42,6.27-2.25,12.8-3.75,19.09-5.95,8.41-2.94,19.46,3.9,19.99,12.97,.63,10.74,1.3,21.52,1.06,32.26-.83,36.73,9.11,70.81,25.14,103.34,7.08,14.36,15.23,28.18,22.74,42.33,2.46,4.64,4.84,9.39,6.54,14.34,1.58,4.6,2.48,9.67-2.23,13.34-3.81,2.97-11.46,2.29-15.92-1.49-6.6-5.6-13.18-11.23-19.46-17.18-27.2-25.78-60.52-35.46-96.92-37.08-6.11-.27-12.24,.06-18.36,.11-7.65,.06-14.42-5.06-15.45-11.68-.94-6.04,3.16-11.79,10.84-14.39,11.73-3.97,23.88-3.29,35.7-1.18,17.8,3.18,35.4,7.49,53.09,11.28,2,.43,4.04,.61,6.55,.97Z"/>
  <path class="uuid-a8e7a8a7-d841-4680-bb4e-ac06cbd8ed4b" d="M227.64,184.27c2.35-12.51,3.7-26.48,7.77-39.6,5.23-16.84,16.36-29.37,34-34.68,7.39-2.23,14.83-5.54,22.34-5.84,14.06-.56,17.92,9.38,14.41,21.41-.73,2.48-4.49,5.29-7.25,5.78-22.78,4.06-30.99,11.07-36.04,33.87-3.38,15.26-1.39,30.56,1.95,45.73,1.19,5.42,2.77,11.66-2.91,15.77-5.8,4.2-12.7,7.47-19.37,3.29-4.07-2.55-8.1-7.36-9.27-11.91-2.73-10.52-3.71-21.48-5.64-33.8Z"/>
</svg>