<?xml version="1.0" encoding="UTF-8"?>
<svg id="uuid-cbb3b208-462f-4cbe-b8eb-b3dc4aed7002" data-name="Layer 1" xmlns="http://www.w3.org/2000/svg" viewBox="0 0 389.17 389.17">
  <defs>
    <style>
      .uuid-431bd905-0127-466a-bfb3-44b6ebfbedc6 {
        fill: none;
        stroke: lime;
      }

      .uuid-431bd905-0127-466a-bfb3-44b6ebfbedc6, .uuid-cf8537e3-afee-4145-9868-5ccc404f1500 {
        stroke-miterlimit: 10;
      }

      .uuid-cf8537e3-afee-4145-9868-5ccc404f1500 {
        stroke: #262261;
        stroke-width: 2px;
      }

      .uuid-aa0030b4-e0dc-4185-a6ad-b2aaf6b9df61 {
        fill: #262261;
      }
    </style>
  </defs>
  <g>
    <circle class="uuid-cf8537e3-afee-4145-9868-5ccc404f1500" cx="194.59" cy="194.59" r="193.58"/>
    <circle class="uuid-431bd905-0127-466a-bfb3-44b6ebfbedc6" cx="194.59" cy="194.59" r="161.12"/>
    <path class="uuid-aa0030b4-e0dc-4185-a6ad-b2aaf6b9df61" d="M191.55,251.2c-3.83-12.21-6.77-23.64-10.99-34.58-8.19-21.23-9.94-43.43-11.15-65.76-.6-11.11-1.45-11.54-12.56-12.78-8.93-1-17.7-3.49-26.54-5.3-2.18-.45-4.38-.81-7.51-1.38,.47,4.81,1.17,8.72,1.16,12.63-.04,10.31,.08,20.65-.79,30.9-.63,7.44-6.19,12.77-11.23,12.5-5.21-.28-11.88-7.14-12.34-13.56-.39-5.44-.46-11.04,.34-16.42,2.3-15.48-1.15-29.71-8.24-43.33-1.75-3.36-3.39-6.78-5.13-10.15-2.23-4.31-1.42-8,1.8-11.56,3.35-3.7,6.95-4.05,11.33-2.07,13.05,5.89,26.2,11.55,39.25,17.44,6.61,2.98,13.15,3.95,20.19,1.42,6.27-2.25,12.8-3.75,19.09-5.95,8.41-2.94,19.46,3.9,19.99,12.97,.63,10.74,1.3,21.52,1.06,32.26-.83,36.73,9.11,70.81,25.14,103.34,7.08,14.36,15.23,28.18,22.74,42.33,2.46,4.64,4.84,9.39,6.54,14.34,1.58,4.6,2.48,9.67-2.23,13.34-3.81,2.97-11.46,2.29-15.92-1.49-6.6-5.6-13.18-11.23-19.46-17.18-27.2-25.78-60.52-35.46-96.92-37.08-6.11-.27-12.24,.06-18.36,.11-7.65,.06-14.42-5.06-15.45-11.68-.94-6.04,3.16-11.79,10.84-14.39,11.73-3.97,23.88-3.29,35.7-1.18,17.8,3.18,35.4,7.49,53.09,11.28,2,.43,4.04,.61,6.55,.97Z"/>
    <path class="uuid-aa0030b4-e0dc-4185-a6ad-b2aaf6b9df61" d="M227.65,184.27c2.35-12.51,3.7-26.48,7.77-39.6,5.23-16.84,16.36-29.37,34-34.68,7.39-2.23,14.83-5.54,22.34-5.84,14.06-.56,17.92,9.38,14.41,21.41-.73,2.48-4.49,5.29-7.25,5.78-22.78,4.06-30.99,11.07-36.04,33.87-3.38,15.26-1.39,30.56,1.95,45.73,1.19,5.42,2.77,11.66-2.91,15.77-5.8,4.2-12.7,7.47-19.37,3.29-4.07-2.55-8.1-7.36-9.27-11.91-2.73-10.52-3.71-21.48-5.64-33.8Z"/>
  </g>
  <g>
    <circle class="uuid-cf8537e3-afee-4145-9868-5ccc404f1500" cx="194.59" cy="194.59" r="193.58"/>
    <circle class="uuid-431bd905-0127-466a-bfb3-44b6ebfbedc6" cx="194.59" cy="194.59" r="161.12"/>
    <g>
      <path class="uuid-aa0030b4-e0dc-4185-a6ad-b2aaf6b9df61" d="M266.67,162.44c0,2.58-.22,3.85,.03,5.02,4.03,19.11,7.68,38.32,12.37,57.28,2.78,11.24,7.23,22.07,10.93,33.09,3.11,9.24,6.81,18.34,9.15,27.77,1.94,7.81-5.69,16.19-13.79,16.51-12.65,.5-16.56-1.29-19.69-14.22-7.1-29.3-21.33-55.06-37.95-79.62-17.22-25.45-37.85-47.65-65.01-62.99-9.79-5.53-19.47-11.26-29.26-16.81-1.87-1.06-3.98-1.7-7.61-3.22,6.59,33.77,12.42,66,19.37,97.98,2.45,11.28,7.87,21.89,11.51,32.95,3.72,11.31-5.76,23.85-17.35,23.06-2.73-.19-5.62-1.47-7.95-3-2.75-1.81-5.25-4.19-7.36-6.74-14.46-17.46-33.22-28.05-54.52-34.74-6.2-1.95-8.03-5.98-7.11-12.51,2.38-16.87,12.86-17.67,24.15-13.6,4.1,1.48,8.11,3.26,12.12,4.97,3.93,1.68,7.82,3.45,12.72,5.62-3.26-15.19-6.09-29.17-9.29-43.08-4.7-20.46-9.52-40.89-14.63-61.25-1.09-4.36-.49-7.69,2.33-10.89,1.24-1.41,2.53-2.78,3.67-4.27,6.03-7.84,13.28-9.63,23.09-7.16,30.6,7.7,59.98,17.69,83.97,39.27,7.9,7.11,15.29,14.79,22.94,22.17,2.64,2.55,5.38,4.99,9.28,6.78-1.87-13.11-3.96-26.19-5.53-39.33-1.04-8.67-2.11-17.47-1.63-26.13,.25-4.48,2.93-9.65,6.11-12.98,6.09-6.37,14.67-5.54,20.11,1.44,8.33,10.69,15.58,22.26,24.42,32.48,12.27,14.18,25.63,27.41,38.43,41.14,6.87,7.37,7.12,11.49,1.64,18.64-6.28,8.18-14.93,11.17-22.13,6.64-7.21-4.53-13.79-10.05-20.64-15.14-1.97-1.46-3.94-2.92-6.92-5.13Z"/>
      <path class="uuid-aa0030b4-e0dc-4185-a6ad-b2aaf6b9df61" d="M189.52,195.4c7.53-.03,19.17,8.36,20.68,14.9,1.89,8.18-2.14,15.25-11.4,19.99-15.06,7.72-29.93,.41-32.69-16.39-.41-2.52,.68-5.8,2.15-8,3.5-5.23,14.88-10.48,21.26-10.5Z"/>
    </g>
  </g>
</svg>