<?xml version="1.0" encoding="UTF-8"?>
<svg id="uuid-d3c824e4-cfd0-4eb5-a475-a8030de75836" data-name="Layer 1" xmlns="http://www.w3.org/2000/svg" viewBox="0 0 389.22 389.22">
  <defs>
    <style>
      .uuid-ca4dcb7f-e3cb-446b-86ca-06fdcd4ecfa6 {
        fill: none;
        stroke: lime;
      }

      .uuid-ca4dcb7f-e3cb-446b-86ca-06fdcd4ecfa6, .uuid-89c7fadd-fad0-4611-924f-d9544235471f {
        stroke-miterlimit: 10;
      }

      .uuid-89c7fadd-fad0-4611-924f-d9544235471f {
        stroke: #262261;
        stroke-width: 2px;
      }

      .uuid-72078e44-8383-4d91-aa2b-5b4d25034166 {
        fill: #262261;
      }
    </style>
  </defs>
  <circle class="uuid-89c7fadd-fad0-4611-924f-d9544235471f" cx="194.61" cy="194.61" r="193.58"/>
  <circle class="uuid-ca4dcb7f-e3cb-446b-86ca-06fdcd4ecfa6" cx="194.61" cy="194.61" r="161.12"/>
  <path class="uuid-72078e44-8383-4d91-aa2b-5b4d25034166" d="M234.67,233.94c-15.83,2.1-30.21-1.89-44.15-8.58-9.22-4.42-18.75-8.21-28.08-12.4-4.04-1.81-6.39-.65-8.61,3.12-6.12,10.4-6.66,21.52-4.99,33.01,.57,3.96,1.51,7.86,2.25,11.79,1.06,5.68,4.3,5.68,7.12,1.88,4.73-6.38,9.45-12.98,12.81-20.13,5.8-12.35,9.34-14.25,20.75-8.7,11.75,5.72,15.47,14.29,9.39,24.13-11.62,18.81-26.72,34.56-44.96,47.04-9.84,6.74-15.31,5.71-22.02-3.87-24.05-34.35-29.96-77.83,.86-114.79,4.58-5.49,10.9-9.67,16.85-13.84,5.86-4.11,11.49-2.75,17.07,1.71,16.78,13.4,35.72,22.53,56.72,27.1,15.16,3.29,30.31,4.66,45.43-.79,3.86-1.39,5.43-3,4.41-7.17-12.38-50.55-38.9-77.27-91.48-87.62-8.11-1.6-10.51,.51-11.43,8.71-.6,5.31-.89,10.65-1.46,15.97-.49,4.59,1.33,7.05,6,6.12,9.75-1.94,19.44-4.2,29.15-6.33,3.85-.85,7.79-2.73,11.5-2.36,6.28,.64,10.34,4.96,11.81,11.19,1.36,5.75-1.5,9.9-5.8,13.24-13.04,10.11-28.2,14.18-44.32,14.4-8.63,.12-17.53-.46-25.84-2.58-5.64-1.44-10.6-5.89-15.52-9.46-1.15-.84-1.49-3.66-1.24-5.44,2.52-18.3,4.88-36.63,8.03-54.83,2.37-13.69,7.28-17.95,21.3-19.78,18.81-2.45,36.84,.8,53.99,8.74,17.52,8.12,33.38,18.75,47.32,32.17,23.93,23.05,34.42,53.08,42.61,84,3.23,12.2-.57,17.4-12.66,22.13-20.24,7.93-40.9,14.04-62.81,12.22Z"/>
</svg>