<?xml version="1.0" encoding="UTF-8"?>
<svg id="uuid-28306325-d7ee-4a42-90d2-ebed74a80342" data-name="Layer 1" xmlns="http://www.w3.org/2000/svg" viewBox="0 0 1659.53 1607.88">
  <defs>
    <style>
      .uuid-ce382ce4-f2c6-4428-b6a3-db213566a93f {
        stroke: lime;
      }

      .uuid-ce382ce4-f2c6-4428-b6a3-db213566a93f, .uuid-91ea9620-c718-4f76-b779-1509efeac11c, .uuid-b9d8e877-feda-45e4-9473-ff3d86b06aa7 {
        stroke-miterlimit: 10;
      }

      .uuid-ce382ce4-f2c6-4428-b6a3-db213566a93f, .uuid-b9d8e877-feda-45e4-9473-ff3d86b06aa7 {
        fill: none;
      }

      .uuid-91ea9620-c718-4f76-b779-1509efeac11c {
        stroke-width: 2px;
      }

      .uuid-91ea9620-c718-4f76-b779-1509efeac11c, .uuid-b9d8e877-feda-45e4-9473-ff3d86b06aa7 {
        stroke: #262261;
      }

      .uuid-44c8d1d2-4610-4b4f-bc09-873a189289c5 {
        fill: lime;
      }

      .uuid-70ac131a-72ad-4bdb-aa02-ebc42501e2ec {
        fill: #262261;
      }
    </style>
  </defs>
  <circle class="uuid-b9d8e877-feda-45e4-9473-ff3d86b06aa7" cx="846.58" cy="851.3" r="699.31"/>
  <circle class="uuid-ce382ce4-f2c6-4428-b6a3-db213566a93f" cx="846.58" cy="851.3" r="668.11"/>
  <path class="uuid-ce382ce4-f2c6-4428-b6a3-db213566a93f" d="M846.57,151.99c24.4,0,45.85,15.6,53.38,38.8l131.42,404.47h425.3c24.4,0,45.85,15.6,53.38,38.78,7.55,23.2-.66,48.4-20.38,62.74l-344.1,249.98,131.44,404.49c7.55,23.16-.64,48.38-20.36,62.72-19.74,14.32-46.23,14.36-66.01,.02l-344.08-249.98-344.06,249.98c-19.8,14.34-46.29,14.3-66.01-.02-19.72-14.34-27.9-39.56-20.34-62.74l131.42-404.47-344.1-249.98c-19.72-14.34-27.92-39.54-20.38-62.74,7.53-23.2,28.98-38.78,53.36-38.78h425.32l131.42-404.49c7.53-23.18,28.98-38.78,53.36-38.78Zm99.01,443.26l-99.01-304.72-98.99,304.72h198Zm-310.3,81.58H314.86l259.23,188.34,61.21-188.34Zm336.81,0h-251.02l-77.58,238.77,203.08,147.55,203.1-147.55-77.58-238.77Zm406.22,0h-320.43l61.21,188.34,259.23-188.34Zm-601.13,436.75l-160.2-116.4-99.01,304.72,259.21-188.32Zm398.01,188.32l-99.01-304.72-160.2,116.4,259.21,188.32Zm-720.64,46.07s.02,0,0,0h0Z"/>
  <g>
    <circle class="uuid-91ea9620-c718-4f76-b779-1509efeac11c" cx="1214.72" cy="1357.03" r="193.58"/>
    <circle class="uuid-ce382ce4-f2c6-4428-b6a3-db213566a93f" cx="1214.72" cy="1357.03" r="161.12"/>
    <path class="uuid-70ac131a-72ad-4bdb-aa02-ebc42501e2ec" d="M1177.33,1404.73c-12.12,6.2-21.1,14.42-29.33,23.56-3.98,4.42-7.95,8.86-11.6,13.54-3.54,4.53-7.39,5.04-12.32,2.43-6.55-3.48-10.03-7.98-8.77-13.24,.84-3.51,2.19-7.19,4.32-10.05,10.8-14.5,13.99-31.19,14.39-48.65,.31-13.73,0-27.47,.21-41.21,.09-5.38-2.06-8.09-7.3-9.53-7.27-2-14.57-4.26-21.42-7.39-12.06-5.52-13.71-15.46-4.96-25.18,3.64-4.04,7.8-4.87,12.76-3.32,4.22,1.33,8.46,2.61,13.87,4.27-.88-3.76-1.46-6.44-2.14-9.11-1.31-5.15-3-10.22-3.93-15.43-1.8-10.13,1.26-14.7,10.87-17.17,11.52-2.96,17.21-.6,20.52,9.31,3.37,10.07,6.39,20.28,9.09,30.56,1.19,4.53,3.66,6.41,7.82,5.38,7.9-1.96,15.94-3.75,23.46-6.78,19.42-7.83,37.79-17.63,54.4-30.62,14.8-11.57,28.49-10.31,41.29,3.19,14.55,15.34,25.19,32.82,32.9,52.72,8.62,22.23,12.23,44.86,12,68.41-.03,3.07-.22,6.19,.2,9.22,3.19,23.04-4.2,44.03-12.46,64.84-2.69,6.79-6.56,9.49-12.26,8.88-5.01-.54-14.42-8.17-14.97-12.44-.19-1.5,.18-3.34,.94-4.64,11.64-20,15.42-41.51,12.79-64.36-2.15-18.69-2.79-37.77-11.2-55.03-6.8-13.95-14.69-27.38-22.26-40.95-1.26-2.26-3.32-4.06-5.33-6.46-11.43,6.61-22.6,12.99-33.69,19.5-16.46,9.66-33.32,18.42-51.97,23.07-3.96,.99-8.13,1.13-12.04,2.25-1.83,.52-4.55,2.28-4.7,3.71-1.37,12.78-2.26,25.6-3.37,39.52,9.71-1.81,18.27-3.18,26.69-5.17,1.78-.42,3.3-2.92,4.48-4.76,12.95-20.09,30.2-36.04,48.71-50.77,.32-.26,.66-.49,1-.72,11.27-7.5,15.12-7.27,24.04,2.93,15.07,17.25,22.38,38.15,25.08,60.34,2.5,20.61,.92,41.36-4,61.64-2.59,10.71-8.35,12.88-17.42,6.44-3.89-2.76-7.76-6.48-9.82-10.67-4.03-8.17-10.06-13.85-17.77-18.04-6.28-3.41-12.57-6.89-19.14-9.66-9.01-3.8-11.52-2.74-14.18,6.79-2.4,8.63-3.73,17.58-5.3,26.42-1.04,5.83-1.44,11.79-2.6,17.59-.63,3.14-1.78,6.39-3.53,9.04-6.11,9.19-14.63,9.47-21.65,1-5.1-6.14-7.38-12.96-5.88-21.09,2-10.82,3.53-21.72,5.5-34.1Zm88.23-18.12c.59-.26,1.18-.52,1.77-.78-2.8-17.11-6.9-33.88-13.15-50.06-.77-.07-1.53-.14-2.3-.21-7.84,9.78-15.67,19.55-23.68,29.55,13.06,7.52,25.21,14.51,37.36,21.5Z"/>
  </g>
  <g>
    <circle class="uuid-91ea9620-c718-4f76-b779-1509efeac11c" cx="846.58" cy="217.37" r="193.58"/>
    <circle class="uuid-ce382ce4-f2c6-4428-b6a3-db213566a93f" cx="846.58" cy="217.37" r="161.12"/>
    <path class="uuid-70ac131a-72ad-4bdb-aa02-ebc42501e2ec" d="M886.89,161.56c-3.2,2.28-6.65,4.28-9.54,6.9-11.24,10.17-22.36,20.46-33.35,30.9-1.43,1.36-2.61,3.85-2.54,5.77,.67,17.92-5.08,34.64-8.8,51.8-5.92,27.3-25.58,44.14-44.99,61.11-7.22,6.31-13.45,3.72-19.96-4.14-15.63-18.87-23.77-41.03-29.67-64.28-.93-3.65-1.6-7.44-1.79-11.19-.46-9.19,1.7-16.33,11.25-21.2,17.83-9.1,34.9-19.68,52.26-29.69,1.73-1,3.19-2.44,4.89-3.5,6.38-3.99,8.85-9.04,4.88-16.19-5.26-9.46-10.22-19.09-15.66-28.44-3.47-5.95-8.11-11.33-6.15-19,2.31-9.06,9.34-12.57,16.4-6.69,6.67,5.56,12.3,12.7,17.22,19.94,5.48,8.06,9.62,17.02,14.4,25.56,.41,.73,1.23,1.22,2.5,2.44,5.07-4.01,10.42-7.6,15.01-11.99,11.58-11.1,22.8-22.56,34.19-33.86,3-2.98,5.87-6.16,9.16-8.78,7.49-5.98,15.77-6.43,22.84-1.63,6.43,4.36,9.06,13.55,6.75,22.16-3.22,11.98-7.71,23.87-8.93,36.08-3.19,31.99,2.96,63.03,13.77,93.03,2.39,6.63,7.84,12.3,12.44,17.96,10.96,13.49,7.85,18.49-4.57,30.22-1.3,1.22-4.54,.6-6.87,.48-14.41-.76-28.91-2.98-43.19-1.95-9.09,.66-17.95,5.82-26.7,9.47-6.13,2.56-11.73,6.41-17.89,8.89-6.12,2.46-15.59-2.43-17.32-8.69-.49-1.78,.52-4.31,1.52-6.12,6.03-10.91,12.12-21.81,18.47-32.54,6.2-10.47,7.67-21.6,6.07-33.48-.59-4.36-1.43-9.38,.15-13.14,1.69-4.02,5.51-8.34,9.45-9.92,4.96-1.99,9.33,1.81,11.92,6.41,5.95,10.59,6.27,22.1,5.16,33.8-.34,3.55-.62,7.13-1.35,10.6-1.26,5.94,1.24,7.67,6.81,7.11,18.36-1.84,19.74-3.99,14.24-21.31-8.44-26.56-12.81-53.63-9.93-81.6,.35-3.4-.23-6.89-.38-10.34-.72-.32-1.44-.64-2.15-.96Zm-72.54,54.11c-2.95,.49-3.66,.46-4.21,.72-14.21,6.82-28.45,13.58-42.53,20.65-1.38,.69-2.49,3.35-2.51,5.1-.14,16.33,8.18,29.16,17.65,41.43,2.48,3.21,4.65,1.62,7.22-.48,11.84-9.69,16.19-22.87,18.42-37.32,1.51-9.77,3.81-19.42,5.96-30.1Z"/>
  </g>
  <g>
    <circle class="uuid-91ea9620-c718-4f76-b779-1509efeac11c" cx="1442.19" cy="659.25" r="193.58"/>
    <circle class="uuid-ce382ce4-f2c6-4428-b6a3-db213566a93f" cx="1442.19" cy="659.25" r="161.12"/>
    <path class="uuid-70ac131a-72ad-4bdb-aa02-ebc42501e2ec" d="M1482.24,698.59c-15.83,2.1-30.21-1.89-44.15-8.58-9.22-4.42-18.75-8.21-28.08-12.4-4.04-1.81-6.39-.65-8.61,3.12-6.12,10.4-6.66,21.52-4.99,33.01,.57,3.96,1.51,7.86,2.25,11.79,1.06,5.68,4.3,5.68,7.12,1.88,4.73-6.38,9.45-12.98,12.81-20.13,5.8-12.35,9.34-14.25,20.75-8.7,11.75,5.72,15.47,14.29,9.39,24.13-11.62,18.81-26.72,34.56-44.96,47.04-9.84,6.74-15.31,5.71-22.02-3.87-24.05-34.35-29.96-77.83,.86-114.79,4.58-5.49,10.9-9.67,16.85-13.84,5.86-4.11,11.49-2.75,17.07,1.71,16.78,13.4,35.72,22.53,56.72,27.1,15.16,3.29,30.31,4.66,45.43-.79,3.86-1.39,5.43-3,4.41-7.17-12.38-50.55-38.9-77.27-91.48-87.62-8.11-1.6-10.51,.51-11.43,8.71-.6,5.31-.89,10.65-1.46,15.97-.49,4.59,1.33,7.05,6,6.12,9.75-1.94,19.44-4.2,29.15-6.33,3.85-.85,7.79-2.73,11.5-2.36,6.28,.64,10.34,4.96,11.81,11.19,1.36,5.75-1.5,9.9-5.8,13.24-13.04,10.11-28.2,14.18-44.32,14.4-8.63,.12-17.53-.46-25.84-2.58-5.64-1.44-10.6-5.89-15.52-9.46-1.15-.84-1.49-3.66-1.24-5.44,2.52-18.3,4.88-36.63,8.03-54.83,2.37-13.69,7.28-17.95,21.3-19.78,18.81-2.45,36.84,.8,53.99,8.74,17.52,8.12,33.38,18.75,47.32,32.17,23.93,23.05,34.42,53.08,42.61,84,3.23,12.2-.57,17.4-12.66,22.13-20.24,7.93-40.9,14.04-62.81,12.22Z"/>
  </g>
  <g>
    <circle class="uuid-91ea9620-c718-4f76-b779-1509efeac11c" cx="250.98" cy="659.25" r="193.58"/>
    <circle class="uuid-ce382ce4-f2c6-4428-b6a3-db213566a93f" cx="250.98" cy="659.25" r="161.12"/>
    <path class="uuid-70ac131a-72ad-4bdb-aa02-ebc42501e2ec" d="M247.95,715.86c-3.83-12.21-6.77-23.64-10.99-34.58-8.19-21.23-9.94-43.43-11.15-65.76-.6-11.11-1.45-11.54-12.56-12.78-8.93-1-17.7-3.49-26.54-5.3-2.18-.45-4.38-.81-7.51-1.38,.47,4.81,1.17,8.72,1.16,12.63-.04,10.31,.08,20.65-.79,30.9-.63,7.44-6.19,12.77-11.23,12.5-5.21-.28-11.88-7.14-12.34-13.56-.39-5.44-.46-11.04,.34-16.42,2.3-15.48-1.15-29.71-8.24-43.33-1.75-3.36-3.39-6.78-5.13-10.15-2.23-4.31-1.42-8,1.8-11.56,3.35-3.7,6.95-4.05,11.33-2.07,13.05,5.89,26.2,11.55,39.25,17.44,6.61,2.98,13.15,3.95,20.19,1.42,6.27-2.25,12.8-3.75,19.09-5.95,8.41-2.94,19.46,3.9,19.99,12.97,.63,10.74,1.3,21.52,1.06,32.26-.83,36.73,9.11,70.81,25.14,103.34,7.08,14.36,15.23,28.18,22.74,42.33,2.46,4.64,4.84,9.39,6.54,14.34,1.58,4.6,2.48,9.67-2.23,13.34-3.81,2.97-11.46,2.29-15.92-1.49-6.6-5.6-13.18-11.23-19.46-17.18-27.2-25.78-60.52-35.46-96.92-37.08-6.11-.27-12.24,.06-18.36,.11-7.65,.06-14.42-5.06-15.45-11.68-.94-6.04,3.16-11.79,10.84-14.39,11.73-3.97,23.88-3.29,35.7-1.18,17.8,3.18,35.4,7.49,53.09,11.28,2,.43,4.04,.61,6.55,.97Z"/>
    <path class="uuid-70ac131a-72ad-4bdb-aa02-ebc42501e2ec" d="M284.05,648.94c2.35-12.51,3.7-26.48,7.77-39.6,5.23-16.84,16.36-29.37,34-34.68,7.39-2.23,14.83-5.54,22.34-5.84,14.06-.56,17.92,9.38,14.41,21.41-.73,2.48-4.49,5.29-7.25,5.78-22.78,4.06-30.99,11.07-36.04,33.87-3.38,15.26-1.39,30.56,1.95,45.73,1.19,5.42,2.77,11.66-2.91,15.77-5.8,4.2-12.7,7.47-19.37,3.29-4.07-2.55-8.1-7.36-9.27-11.91-2.73-10.52-3.71-21.48-5.64-33.8Z"/>
  </g>
  <g>
    <circle class="uuid-91ea9620-c718-4f76-b779-1509efeac11c" cx="478.45" cy="1357.03" r="193.58"/>
    <circle class="uuid-ce382ce4-f2c6-4428-b6a3-db213566a93f" cx="478.45" cy="1357.03" r="161.12"/>
    <g>
      <path class="uuid-70ac131a-72ad-4bdb-aa02-ebc42501e2ec" d="M550.53,1324.88c0,2.58-.22,3.85,.03,5.02,4.03,19.11,7.68,38.32,12.37,57.28,2.78,11.24,7.23,22.07,10.93,33.09,3.11,9.24,6.81,18.34,9.15,27.77,1.94,7.81-5.69,16.19-13.79,16.51-12.65,.5-16.56-1.29-19.69-14.22-7.1-29.3-21.33-55.06-37.95-79.62-17.22-25.45-37.85-47.65-65.01-62.99-9.79-5.53-19.47-11.26-29.26-16.81-1.87-1.06-3.98-1.7-7.61-3.22,6.59,33.77,12.42,66,19.37,97.98,2.45,11.28,7.87,21.89,11.51,32.95,3.72,11.31-5.76,23.85-17.35,23.06-2.73-.19-5.62-1.47-7.95-3-2.75-1.81-5.25-4.19-7.36-6.74-14.46-17.46-33.22-28.05-54.52-34.74-6.2-1.95-8.03-5.98-7.11-12.51,2.38-16.87,12.86-17.67,24.15-13.6,4.1,1.48,8.11,3.26,12.12,4.97,3.93,1.68,7.82,3.45,12.72,5.62-3.26-15.19-6.09-29.17-9.29-43.08-4.7-20.46-9.52-40.89-14.63-61.25-1.09-4.36-.49-7.69,2.33-10.89,1.24-1.41,2.53-2.78,3.67-4.27,6.03-7.84,13.28-9.63,23.09-7.16,30.6,7.7,59.98,17.69,83.97,39.27,7.9,7.11,15.29,14.79,22.94,22.17,2.64,2.55,5.38,4.99,9.28,6.78-1.87-13.11-3.96-26.19-5.53-39.33-1.04-8.67-2.11-17.47-1.63-26.13,.25-4.48,2.93-9.65,6.11-12.98,6.09-6.37,14.67-5.54,20.11,1.44,8.33,10.69,15.58,22.26,24.42,32.48,12.27,14.18,25.63,27.41,38.43,41.14,6.87,7.37,7.12,11.49,1.64,18.64-6.28,8.18-14.93,11.17-22.13,6.64-7.21-4.53-13.79-10.05-20.64-15.14-1.97-1.46-3.94-2.92-6.92-5.13Z"/>
      <path class="uuid-70ac131a-72ad-4bdb-aa02-ebc42501e2ec" d="M473.38,1357.84c7.53-.03,19.17,8.36,20.68,14.9,1.89,8.18-2.14,15.25-11.4,19.99-15.06,7.72-29.93,.41-32.69-16.39-.41-2.52,.68-5.8,2.15-8,3.5-5.23,14.88-10.48,21.26-10.5Z"/>
    </g>
  </g>
  <text/>
  <text/>
  <text/>
  <text/>
  <text/>
  <g>
    <circle class="uuid-70ac131a-72ad-4bdb-aa02-ebc42501e2ec" cx="846.58" cy="848.32" r="198.74"/>
    <g>
      <path class="uuid-44c8d1d2-4610-4b4f-bc09-873a189289c5" d="M730.49,797.14c4.75-6.31,10.77-9.45,18.93-10.36,39.03-4.38,76.86-.3,113.44,14.28,3.51,1.4,6.98,2.93,10.31,4.71,18.63,9.94,23.98,20.77,18.56,41.25-5.84,22.08-19.35,39.92-34.65,56.31-5.02,5.38-21.13,2.65-24.66-3.84-.93-1.7-.15-5.22,1.09-7.07,5.83-8.69,12.33-16.93,18.13-25.64,4.05-6.09,7.88-12.44,10.83-19.11,3.01-6.81,1.23-11.32-5.58-14.11-17.1-7.01-34.46-13.29-53.28-13.84-8.69-.25-17.37-.76-26.06-1.07-5.18-.19-8.23,1.8-6.98,7.57,6.4,29.7,15.1,58.56,30.94,84.82,4.25,7.04,10.13,10.83,18.58,10.93,24.03,.27,48.06,.78,72.09,1.16,1.32,.02,2.68-.23,3.96-.58,33.12-9.06,29.85-11.42,29.76-37.76-.1-27.59-10.37-52.57-20.85-77.43-1.64-3.89-3.55-7.67-5.39-11.48-12.07-24.95-42.21-36.86-68.17-27.03-7.07,2.68-14.12,5.46-21.35,7.63-4.75,1.43-9.67,1.95-12.63-3.93-4.05-8.06-4.25-14.23,1.07-18.2,27.5-20.49,56.95-31.71,90.67-15.94,7.06,3.3,14.03,8.17,19.15,13.98,13.47,15.28,24.18,32.38,30.11,52.24,8.84,29.61,19.23,58.86,22.71,89.75,1.33,11.77,3.41,23.93-2.37,35.45-3.85,7.68-9.68,13.11-18.11,14.41-25.02,3.87-50.02,8.27-75.2,10.47-16.99,1.49-34.36,.54-51.41-.99-23.05-2.07-39.93-14.44-47.38-36.47-12.38-36.61-23.42-73.68-35.06-110.54-.18-.57-.77-1.02-1.16-1.52,0-2.68,0-5.35,0-8.03Z"/>
      <path class="uuid-44c8d1d2-4610-4b4f-bc09-873a189289c5" d="M834.04,856.99c.13,7.77-6.4,16.37-12.5,16.47-8.45,.13-20.96-8.92-21.26-15.37-.33-7.14,8.79-16.48,16.33-16.74,7.15-.24,17.31,8.88,17.42,15.64Z"/>
    </g>
    <circle class="uuid-ce382ce4-f2c6-4428-b6a3-db213566a93f" cx="846.58" cy="848.32" r="165.41"/>
  </g>
</svg>