<?xml version="1.0" encoding="UTF-8"?><svg id="Layer_2" xmlns="http://www.w3.org/2000/svg" viewBox="0 0 800 77.54"><defs><style>.cls-1{fill:lime;}</style></defs><g id="Layer_1-2"><g><path class="cls-1" d="M40.72,30c.5,.44,.76,1.01,.76,1.73,0,.58-.22,1.08-.65,1.52l-4.01,3.9c-.43,.44-.94,.65-1.52,.65-.72,0-1.3-.29-1.73-.87L17.33,17.22c-.43-.5-.91-.76-1.41-.76-.36,0-.69,.11-.97,.33s-.43,.58-.43,1.08,.14,.9,.43,1.19c1.23,1.59,2.42,4.06,3.57,7.42,1.16,3.36,1.73,6.3,1.73,8.83v39.85c0,.65-.2,1.21-.6,1.68-.4,.47-.88,.7-1.46,.7H2.17c-.58,0-1.08-.23-1.52-.7-.43-.47-.65-1.03-.65-1.68V4.33c0-.65,.22-1.22,.65-1.73,.43-.5,.94-.76,1.52-.76H6.39c.58,0,1.19,.25,1.84,.76L40.72,30Z"/><path class="cls-1" d="M46.14,77.54c-.87,0-1.55-.36-2.06-1.08-.51-.72-.61-1.48-.33-2.27L68.34,3.36c.14-.5,.43-.9,.87-1.19s.9-.44,1.41-.44h19.71c.58,0,1.08,.15,1.52,.44s.72,.69,.87,1.19l24.59,70.83c.29,.79,.18,1.55-.33,2.27-.51,.72-1.19,1.08-2.06,1.08h-19.06c-1.08,0-1.88-.54-2.38-1.62l-.11-.33c-7.58-22.1-11.37-44.66-11.37-67.69,0-1.37-.51-2.06-1.52-2.06s-1.52,.69-1.52,2.06c0,23.39-3.79,45.95-11.37,67.69l-.11,.33c-.14,.5-.43,.9-.87,1.19-.43,.29-.94,.43-1.52,.43h-18.95Z"/><path class="cls-1" d="M162.55,36.39c-.28,.29-.36,.61-.21,.97l12.78,36.83c.28,.79,.18,1.55-.33,2.27-.51,.72-1.2,1.08-2.06,1.08h-18.96c-.58,0-1.08-.14-1.52-.43s-.72-.69-.87-1.19c-2.02-5.85-3.94-12.35-5.74-19.5-.07-.28-.24-.54-.49-.76-.25-.22-.56-.33-.92-.33-.43,0-.8,.15-1.08,.44l-11.8,11.8c-.87,.72-1.3,1.7-1.3,2.92v4.98c0,.58-.2,1.07-.6,1.46-.4,.39-.88,.59-1.46,.59-.5,0-.96-.2-1.35-.59s-.6-.89-.6-1.46V4.44c0-.65,.2-1.21,.6-1.68,.39-.47,.88-.7,1.46-.7h44.95c.58,0,1.08,.24,1.51,.7,.43,.47,.65,1.03,.65,1.68V22.64c0,.72-.25,1.33-.76,1.84l-11.92,11.91Zm-30.32-11.37c-.58,0-1.08,.24-1.52,.7-.43,.47-.65,1.03-.65,1.68v31.95c0,.44,.16,.8,.49,1.08,.32,.29,.67,.44,1.03,.44,.43,0,.79-.14,1.08-.44l32.82-32.81c.28-.28,.43-.65,.43-1.08s-.15-.79-.43-1.08c-.29-.29-.65-.44-1.08-.44h-32.17Z"/><path class="cls-1" d="M186.38,77.54c-.87,0-1.55-.36-2.06-1.08s-.61-1.48-.32-2.27L208.59,3.36c.15-.5,.44-.9,.87-1.19,.44-.29,.9-.44,1.41-.44h19.71c.58,0,1.08,.15,1.52,.44,.43,.29,.72,.69,.87,1.19l24.58,70.83c.29,.79,.18,1.55-.33,2.27s-1.19,1.08-2.05,1.08h-19.06c-1.09,0-1.88-.54-2.38-1.62l-.11-.33c-7.58-22.1-11.37-44.66-11.37-67.69,0-1.37-.51-2.06-1.52-2.06s-1.52,.69-1.52,2.06c0,23.39-3.79,45.95-11.37,67.69l-.11,.33c-.15,.5-.43,.9-.87,1.19-.43,.29-.94,.43-1.51,.43h-18.96Z"/><path class="cls-1" d="M339.95,74.19c.29,.79,.18,1.55-.33,2.27s-1.19,1.08-2.05,1.08h-68.77c-.65,0-1.23-.25-1.73-.76s-.76-1.09-.76-1.73c0-.15,.07-.44,.22-.87L291,3.36c.5-1.09,1.3-1.63,2.38-1.63h19.71c.5,0,.97,.15,1.41,.44,.43,.29,.72,.69,.87,1.19l24.58,70.83Zm-25.67-4.98c.29,.29,.65,.43,1.09,.43,.36,0,.7-.16,1.03-.48,.32-.33,.45-.74,.38-1.25-3.75-11.26-6.7-21.75-8.83-31.46-2.13-9.71-3.2-19.22-3.2-28.54,0-1.37-.5-2.06-1.51-2.06s-1.52,.69-1.52,2.06c0,9.31-1.07,18.83-3.19,28.54-2.13,9.71-5.08,20.2-8.83,31.46v.33c0,.36,.14,.69,.43,.98s.61,.43,.98,.43c.43,0,.79-.14,1.08-.43l8.77-8.12c.65-.65,1.41-.97,2.27-.97s1.62,.32,2.27,.97l8.77,8.12Z"/><path class="cls-1" d="M380.02,33.58c-.29,0-.56,.11-.81,.33-.26,.22-.38,.5-.38,.87v9.85c0,.29,.13,.56,.38,.81,.25,.25,.52,.38,.81,.38h14.4c.5,0,.96,.18,1.35,.54,.39,.36,.6,.8,.6,1.3v.33c0,.5-.18,.94-.55,1.3-.36,.36-.79,.54-1.3,.54h-13.86c-.36,0-.67,.13-.92,.38s-.35,.56-.27,.92l2.6,23.61v.43c0,.65-.2,1.21-.59,1.68-.4,.47-.89,.7-1.46,.7h-15.05c-.65,0-1.18-.29-1.57-.87-.4-.58-.56-1.23-.49-1.95l2.71-23.61c0-.36-.13-.67-.38-.92-.25-.25-.52-.38-.81-.38h-13.86c-.51,0-.94-.18-1.3-.54-.36-.36-.54-.79-.54-1.3v-.33c0-.5,.18-.94,.54-1.3,.36-.36,.79-.54,1.3-.54h14.4c.36,0,.65-.13,.87-.38,.22-.25,.32-.52,.32-.81v-9.85c0-.36-.11-.65-.32-.87s-.51-.33-.87-.33h-14.4c-.51,0-.94-.18-1.3-.54s-.54-.8-.54-1.3v-.33c0-.5,.18-.94,.54-1.3s.79-.54,1.3-.54h13.86c.36,0,.67-.13,.92-.38s.34-.56,.27-.92l-2.71-23.61c-.07-.72,.09-1.37,.49-1.95,.39-.58,.92-.87,1.57-.87h15.05c.72,0,1.27,.27,1.63,.81,.36,.54,.5,1.21,.43,2l-2.71,23.61v.22c0,.29,.12,.54,.38,.76,.25,.22,.52,.33,.81,.33h13.97c.5,0,.94,.18,1.3,.54s.55,.79,.55,1.3v.33c0,.5-.2,.94-.6,1.3-.4,.36-.85,.54-1.35,.54h-14.4Z"/><path class="cls-1" d="M417.59,29.67c-.8,.22-1.19,.76-1.19,1.63,0,.43,.22,.83,.65,1.19l27.08,14.3c.79,.36,1.19,.97,1.19,1.84,0,.36-.11,.72-.33,1.09l-14.08,26.64c-.44,.8-1.09,1.19-1.95,1.19h-21.12c-.58,0-1.07-.22-1.46-.65-.4-.43-.59-.94-.59-1.51,0-.44,.07-.76,.22-.98l17.33-32.71c.07-.14,.11-.32,.11-.54,0-.43-.18-.76-.55-.97l-14.73-7.8c-.58-.29-.98-.79-1.19-1.52l-4.12-19.28v-.44c0-.5,.14-.97,.43-1.41,.29-.43,.69-.68,1.19-.76L446.19,0h.32c.5,0,.98,.16,1.41,.49,.43,.33,.68,.74,.76,1.24l4.01,18.2v.44c0,.5-.16,.96-.49,1.35-.33,.4-.74,.67-1.24,.81l-33.36,7.15Z"/><path class="cls-1" d="M467.52,25.02c-.58,0-1.09,.24-1.52,.7-.44,.47-.65,1.03-.65,1.68v8.23c0,.58,.22,1.07,.65,1.46,.43,.4,.94,.59,1.52,.59h26.21c.57,0,1.06-.2,1.46-.59s.59-.88,.59-1.46v-4.23c0-.65,.22-1.16,.65-1.52,.44-.36,.9-.54,1.41-.54,.58,0,1.07,.2,1.46,.6,.39,.4,.59,.92,.59,1.57v4.12c0,.58,.2,1.07,.6,1.46,.39,.4,.88,.59,1.46,.59h6.5c.65,0,1.16,.2,1.52,.6s.54,.88,.54,1.46-.18,1.07-.54,1.46c-.36,.39-.87,.59-1.52,.59h-6.5c-.58,0-1.07,.22-1.46,.65-.4,.43-.6,.94-.6,1.52v4.22c0,.65-.2,1.16-.59,1.52-.4,.36-.89,.54-1.46,.54-.5,0-.97-.2-1.41-.6-.43-.39-.65-.92-.65-1.57v-4.11c0-.58-.2-1.09-.59-1.52-.4-.44-.89-.65-1.46-.65h-26.21c-.58,0-1.09,.22-1.52,.65-.44,.43-.65,.94-.65,1.52v8.12c0,.72,.22,1.32,.65,1.79,.43,.47,.94,.7,1.52,.7h40.83c.58,0,1.08,.24,1.52,.7,.43,.47,.65,1.03,.65,1.68v18.2c0,.65-.22,1.21-.65,1.68-.44,.47-.94,.7-1.52,.7h-44.94c-.58,0-1.07-.23-1.46-.7-.39-.47-.59-1.03-.59-1.68V4.44c0-.65,.2-1.21,.59-1.68,.4-.47,.89-.7,1.46-.7h44.94c.58,0,1.08,.24,1.52,.7,.43,.47,.65,1.03,.65,1.68V22.64c0,.65-.22,1.21-.65,1.68-.44,.47-.94,.7-1.52,.7h-40.83Z"/><path class="cls-1" d="M553.83,77.54c-.79,0-1.41-.29-1.84-.87-.44-.58-.51-1.23-.22-1.95L575.82,3.58c.36-1.01,1.05-1.52,2.06-1.52h19.6c.79,0,1.41,.29,1.84,.87,.43,.58,.5,1.23,.22,1.95l-10.29,30.44c-.07,.14-.04,.43,.11,.87l19.82,38.44c.15,.44,.22,.72,.22,.87,0,.58-.2,1.07-.6,1.46-.4,.39-.88,.59-1.46,.59-.8,0-1.37-.36-1.73-1.08l-16.68-32.27c-.22-.58-.65-.87-1.3-.87-.58,0-1.05,.33-1.41,.97l-10.72,31.73c-.36,1.01-1.05,1.52-2.06,1.52h-19.6Z"/><path class="cls-1" d="M631.21,72.67c-5.09-3.25-8.56-7.58-10.4-13-1.84-5.41-2.76-12.02-2.76-19.82s.92-14.3,2.76-19.71c1.84-5.41,5.3-9.75,10.4-13,5.09-3.25,12.25-4.87,21.5-4.87s16.41,1.63,21.5,4.87c5.09,3.25,8.55,7.58,10.39,13,1.84,5.41,2.76,11.99,2.76,19.71s-.92,14.4-2.76,19.82c-1.84,5.41-5.3,9.75-10.39,13-5.09,3.25-12.26,4.87-21.5,4.87s-16.41-1.62-21.5-4.87Zm-7.42-24.26c2.38,2.38,5.24,3.58,8.55,3.58h7.15c3.03,0,5.63,1.08,7.79,3.25s3.25,4.77,3.25,7.8v8.23c0,.58,.22,1.08,.65,1.52s.94,.65,1.52,.65,1.08-.22,1.51-.65,.65-.94,.65-1.52v-8.23c0-3.03,1.08-5.63,3.25-7.8s4.76-3.25,7.8-3.25h7.15c3.39,0,6.26-1.19,8.61-3.58,2.34-2.38,3.52-5.24,3.52-8.55s-1.19-6.15-3.58-8.5c-2.38-2.35-5.24-3.52-8.55-3.52h-7.15c-3.03,0-5.63-1.09-7.8-3.25s-3.25-4.77-3.25-7.8V8.56c0-.58-.22-1.09-.65-1.52-.43-.44-.94-.65-1.51-.65s-1.09,.22-1.52,.65c-.44,.43-.65,.94-.65,1.52v8.23c0,3.03-1.08,5.63-3.25,7.8s-4.76,3.25-7.79,3.25h-7.15c-3.32,0-6.17,1.17-8.55,3.52s-3.58,5.18-3.58,8.5,1.19,6.17,3.58,8.55Zm21.45-1.08c-2.09-2.09-3.14-4.58-3.14-7.47s1.05-5.36,3.14-7.42c2.09-2.06,4.58-3.09,7.47-3.09s5.36,1.03,7.42,3.09c2.06,2.06,3.09,4.53,3.09,7.42s-1.03,5.47-3.09,7.53c-2.05,2.06-4.53,3.09-7.42,3.09s-5.38-1.05-7.47-3.14Z"/><path class="cls-1" d="M710.76,29.67c-.8,.22-1.19,.76-1.19,1.63,0,.43,.22,.83,.65,1.19l27.08,14.3c.79,.36,1.19,.97,1.19,1.84,0,.36-.11,.72-.33,1.09l-14.08,26.64c-.44,.8-1.09,1.19-1.95,1.19h-21.12c-.58,0-1.07-.22-1.46-.65-.4-.43-.59-.94-.59-1.51,0-.44,.07-.76,.22-.98l17.33-32.71c.07-.14,.11-.32,.11-.54,0-.43-.18-.76-.55-.97l-14.73-7.8c-.58-.29-.98-.79-1.19-1.52l-4.12-19.28v-.44c0-.5,.14-.97,.43-1.41,.29-.43,.69-.68,1.19-.76L739.35,0h.32c.5,0,.98,.16,1.41,.49,.43,.33,.68,.74,.76,1.24l4.01,18.2v.44c0,.5-.16,.96-.49,1.35-.33,.4-.74,.67-1.24,.81l-33.36,7.15Z"/><path class="cls-1" d="M798.05,37.36c.5,0,.96,.18,1.35,.55,.39,.36,.6,.79,.6,1.3v.33c0,.5-.2,.94-.6,1.3-.4,.36-.85,.55-1.35,.55h-14.29c-.29,0-.56,.13-.81,.38s-.34,.56-.27,.92l3.03,32.06v.43c0,.65-.2,1.21-.59,1.68-.4,.47-.89,.7-1.46,.7h-15.05c-.8,0-1.35-.31-1.68-.92s-.45-1.24-.38-1.9l3.14-32.06v-.22c0-.29-.13-.54-.38-.76-.26-.22-.52-.32-.81-.32h-14.29c-.51,0-.94-.18-1.3-.55-.36-.36-.54-.79-.54-1.3v-.33c0-.5,.18-.94,.54-1.3s.79-.55,1.3-.55h14.29c.36,0,.67-.12,.92-.38,.25-.25,.34-.56,.27-.92l-3.14-31.41c-.07-.72,.09-1.37,.49-1.95,.39-.58,.92-.87,1.57-.87h15.05c.58,0,1.09,.29,1.52,.87,.44,.58,.61,1.23,.54,1.95l-3.03,31.41v.22c0,.29,.12,.54,.38,.76,.25,.22,.52,.32,.81,.32h14.18Z"/></g></g></svg>