<?xml version="1.0" encoding="utf-8"?>
<!-- Generator: Adobe Illustrator 27.3.1, SVG Export Plug-In . SVG Version: 6.00 Build 0)  -->
<svg version="1.1" id="Layer_1" xmlns="http://www.w3.org/2000/svg" xmlns:xlink="http://www.w3.org/1999/xlink" x="0px" y="0px"
	 viewBox="0 0 1024 768" style="enable-background:new 0 0 1024 768;" xml:space="preserve">
<style type="text/css">
	.st0{fill:#83F951;}
	.st1{stroke:#83F951;stroke-width:3;stroke-miterlimit:10;}
	.st2{fill:#FF0000;}
</style>
<path d="M990.67,692.26v-18.19V572.59v-18.19V452.93v-18.19V333.26v-18.19V213.59v-18.19V93.93V75.74
	c0-33.89-16.85-50.74-50.74-50.74h-18.19H820.26h-18.19H700.59h-18.19H580.93h-18.19H461.26h-18.19H341.59h-18.19H221.93h-18.19
	H102.26H84.07c-33.89,0-50.74,16.85-50.74,50.74v18.19v101.48v18.19v101.48v18.19v101.48v18.19v101.48v18.19v101.48v18.19
	c0,33.89,16.85,50.74,50.74,50.74h18.19h101.48h18.19h101.48h18.19h101.48h18.19h101.48h18.19h101.48h18.19h101.48h18.19h101.48
	h18.19C973.82,743,990.67,726.15,990.67,692.26z M682.41,144.67h18.19h101.48h18.19c0,0,50.74,0,50.74,50.74v18.19
	c-3.04,148.4-2.08,204.01,0,221.14c0.19,1.56,1.11,8.76,0,18.19c-1.03,8.77-3.48,29.5-19.22,41.25
	c-10.02,7.48-21.76,8.57-31.51,9.49c-8.97,0.84-9.43-0.57-18.19,0c-10.95,0.71-27.19,1.77-38.08,12.66
	c-10.41,10.41-11.64,25.52-12.66,38.08c-0.81,9.94,0.85,9.56,0,18.19c-0.69,7.03-2.87,29.05-19.22,41.25
	c-9.81,7.32-21.15,8.45-31.51,9.49c-9.45,0.94-16.63,0.16-18.19,0c-14.4-1.46-71.27-2-221.14,0c-6.06,0-12.13,0-18.19,0
	c0,0-50.74,0-50.74-50.74v-18.19c0-33.89-16.85-50.74-50.74-50.74h-18.19c-33.89,0-50.74,16.85-50.74,50.74v18.19
	c0,0,0,50.74-50.74,50.74h-18.19c0,0-50.74,0-50.74-50.74v-18.19V452.93v-18.19V333.26v-18.19V213.59v-18.19
	c0,0,0-50.74,50.74-50.74h18.19c0,0,50.74,0,50.74,50.74v18.19v101.48v18.19c0,33.89,16.85,50.74,50.74,50.74h18.19
	c33.89,0,50.74-16.85,50.74-50.74v-18.19V213.59v-18.19c0,0,0-50.74,50.74-50.74h18.19H682.41z"/>
<path d="M630.64,313.64c0-26.77-21.7-48.48-48.48-48.48h-53h-18.19c-28.02,0-50.74,22.72-50.74,50.74v18.19
	c0,28.02,22.72,50.74,50.74,50.74h18.19h53c26.77,0,48.48-21.7,48.48-48.48V313.64z"/>
<path d="M796.2,313.64c0-26.77-21.7-48.48-48.48-48.48h0h-18.19c-28.02,0-50.74,22.72-50.74,50.74v18.19
	c0,28.02,22.72,50.74,50.74,50.74h18.19h0c26.77,0,48.48-21.7,48.48-48.48V313.64z"/>
<g>
	<g>
		<path class="st0" d="M314.88,217.74l-2.95,8.44h-1.24l4.14-11.29h0.14l4.14,11.29h-1.3L314.88,217.74z M316.82,222.94h-4.07
			l0.25-0.97h3.53L316.82,222.94z"/>
		<path class="st0" d="M320.26,226.18v-11.21h3.19c0.65,0,1.21,0.07,1.67,0.2c0.47,0.13,0.85,0.32,1.16,0.56
			c0.31,0.24,0.53,0.53,0.68,0.86c0.14,0.34,0.22,0.7,0.22,1.1c0,0.35-0.06,0.69-0.19,1.03c-0.13,0.34-0.31,0.63-0.56,0.88
			s-0.55,0.44-0.91,0.58c0.31,0.11,0.6,0.26,0.85,0.45c0.26,0.19,0.48,0.42,0.67,0.67c0.19,0.26,0.33,0.53,0.43,0.83
			c0.1,0.29,0.15,0.6,0.15,0.91c0,0.47-0.08,0.9-0.25,1.29c-0.17,0.39-0.42,0.72-0.77,1c-0.34,0.28-0.78,0.49-1.31,0.64
			c-0.53,0.15-1.15,0.23-1.87,0.23H320.26z M321.5,219.61h1.76c0.66,0,1.18-0.08,1.57-0.23c0.38-0.16,0.66-0.37,0.83-0.64
			c0.17-0.27,0.25-0.57,0.25-0.91c0-0.25-0.04-0.49-0.14-0.7c-0.09-0.22-0.23-0.4-0.42-0.57s-0.44-0.29-0.76-0.39
			c-0.31-0.1-0.69-0.14-1.13-0.14h-1.96V219.61z M321.5,225.08h2.14c0.53,0,0.99-0.07,1.39-0.21c0.4-0.14,0.71-0.36,0.93-0.67
			c0.22-0.31,0.33-0.73,0.33-1.24c0-0.44-0.1-0.84-0.29-1.18c-0.19-0.34-0.5-0.61-0.93-0.81c-0.43-0.2-1.01-0.3-1.74-0.3h-1.84
			V225.08z"/>
		<path class="st0" d="M332.9,226.38c-0.85,0-1.58-0.22-2.18-0.67s-1.06-1.1-1.37-1.95c-0.31-0.86-0.47-1.9-0.47-3.12
			c0-1.19,0.16-2.21,0.47-3.07c0.31-0.86,0.77-1.52,1.37-1.98s1.33-0.69,2.18-0.69c0.86,0,1.59,0.23,2.19,0.69
			c0.59,0.46,1.05,1.12,1.36,1.98s0.47,1.88,0.47,3.07c0,1.22-0.16,2.27-0.47,3.12s-0.77,1.51-1.36,1.95
			C334.49,226.16,333.76,226.38,332.9,226.38z M332.9,225.28c0.58,0,1.06-0.18,1.47-0.54c0.4-0.36,0.71-0.88,0.93-1.58
			c0.22-0.69,0.32-1.53,0.32-2.53c0-0.95-0.11-1.77-0.32-2.46s-0.52-1.23-0.93-1.61c-0.4-0.38-0.89-0.58-1.47-0.58
			c-0.56,0-1.05,0.19-1.46,0.58c-0.41,0.38-0.72,0.92-0.94,1.61s-0.32,1.51-0.32,2.46c0,1,0.11,1.84,0.32,2.53
			c0.22,0.69,0.53,1.22,0.94,1.58C331.85,225.1,332.33,225.28,332.9,225.28z"/>
		<path class="st0" d="M339.21,225.31c-0.61-0.71-0.91-1.71-0.91-3v-7.34h1.22h0.18v0.13c-0.07,0.07-0.12,0.15-0.14,0.23
			s-0.03,0.23-0.03,0.43v6.57c0,0.91,0.18,1.64,0.53,2.18s0.98,0.81,1.86,0.81c0.9,0,1.53-0.27,1.89-0.81
			c0.36-0.54,0.54-1.28,0.54-2.23v-7.31h1.21v7.29c0,0.95-0.15,1.73-0.45,2.33c-0.3,0.61-0.72,1.06-1.27,1.35
			c-0.55,0.29-1.19,0.44-1.94,0.44C340.72,226.38,339.81,226.02,339.21,225.31z"/>
		<path class="st0" d="M350.14,226.18V216.1h-3.19v-1.13h7.78v1.13h-3.31v10.08H350.14z"/>
	</g>
	<path class="st1" d="M377.51,274.42c0-20.32-16.47-36.8-36.8-36.8h0h-13.81c-21.27,0-38.51,17.24-38.51,38.51v13.81
		c0,21.27,17.24,38.51,38.51,38.51h13.81h0c20.32,0,36.8-16.47,36.8-36.8V274.42z"/>
	<path class="st0" d="M345.14,280.09h-0.89h-4.99h-0.89c0,0-2.5,0-2.5-2.5v-0.89c0,0,0-2.5,2.5-2.5h0.89c1.66,0,2.5-0.84,2.5-2.5
		v-0.89v-4.99v-0.89v-4.99v-0.89c0-1.66-0.84-2.5-2.5-2.5h-0.89h-4.99h-0.89h-4.99h-0.89c-1.66,0-2.5,0.84-2.5,2.5v0.89v4.99v0.89
		v4.99v0.89c0,1.66,0.84,2.5,2.5,2.5h0.89c0,0,2.5,0,2.5,2.5v0.89c0,0,0,2.5-2.5,2.5h-0.89h-4.99h-0.89c-1.66,0-2.5,0.84-2.5,2.5
		v0.89c0,1.66,0.84,2.5,2.5,2.5h0.89c0,0,2.5,0,2.5,2.5v0.89v4.99v0.89v4.99v0.89v5v0.89c0,1.66,0.84,2.5,2.5,2.5h0.89
		c1.66,0,2.5-0.84,2.5-2.5v-0.89v-4.99v-0.89c0,0,0-2.5,2.5-2.5h0.89c0,0,2.5,0,2.5,2.5v0.89v4.99v0.89c0,1.66,0.84,2.5,2.5,2.5
		h0.89c1.66,0,2.5-0.84,2.5-2.5v-0.89v-4.99v-0.89v-4.99v-0.89v-4.99v-0.89c0,0,0-2.5,2.5-2.5h0.89c1.66,0,2.5-0.84,2.5-2.5v-0.89
		C347.64,280.93,346.81,280.09,345.14,280.09z M329.97,264.93c0,0,0-2.5,2.5-2.5h0.89c0,0,2.5,0,2.5,2.5v0.89c0,0,0,2.5-2.5,2.5
		h-0.89c0,0-2.5,0-2.5-2.5V264.93L329.97,264.93z"/>
</g>
<g>
	<g>
		<path d="M181.56,298.9l-3.82-11.23h1.31l2.88,8.57l2.72-8.55h1.24l-3.76,11.21H181.56z"/>
		<path d="M187.75,298.9v-1.06h2.21v-9.09h-2.09v-1.06h5.56v1.06h-2.21v9.11h2.32v1.04H187.75z"/>
		<path d="M197.77,298.74c-0.58-0.24-1.1-0.59-1.54-1.06l0.65-1.13l0.07-0.16l0.13,0.07c0.02,0.08,0.05,0.18,0.09,0.28
			s0.12,0.23,0.25,0.37c0.31,0.26,0.67,0.47,1.09,0.63c0.41,0.16,0.88,0.23,1.41,0.23c0.34,0,0.65-0.05,0.93-0.15
			c0.28-0.1,0.53-0.24,0.74-0.41c0.21-0.17,0.37-0.37,0.49-0.61s0.17-0.48,0.17-0.74c0-0.2-0.02-0.39-0.06-0.56
			c-0.04-0.17-0.12-0.32-0.23-0.46s-0.27-0.27-0.46-0.41s-0.44-0.28-0.74-0.44c-0.3-0.16-0.66-0.32-1.08-0.5
			c-0.78-0.3-1.4-0.62-1.85-0.98c-0.45-0.35-0.77-0.73-0.95-1.12c-0.19-0.39-0.28-0.8-0.28-1.22c0-0.55,0.14-1.03,0.41-1.44
			c0.28-0.41,0.67-0.73,1.18-0.97c0.51-0.23,1.12-0.35,1.83-0.35c0.41,0,0.8,0.06,1.18,0.17c0.38,0.11,0.73,0.27,1.06,0.48
			c0.33,0.2,0.62,0.46,0.87,0.76l-0.7,0.94l-0.11,0.14l-0.11-0.07c-0.01-0.1-0.04-0.19-0.07-0.29c-0.04-0.1-0.12-0.22-0.25-0.36
			c-0.29-0.28-0.59-0.46-0.92-0.57c-0.32-0.1-0.71-0.15-1.15-0.15c-0.3,0-0.57,0.04-0.8,0.13c-0.23,0.08-0.44,0.2-0.6,0.36
			c-0.17,0.15-0.3,0.33-0.39,0.53s-0.14,0.4-0.14,0.62c0,0.2,0.02,0.39,0.07,0.56c0.05,0.17,0.13,0.33,0.25,0.48
			c0.12,0.16,0.28,0.31,0.5,0.47c0.21,0.16,0.47,0.31,0.79,0.47c0.32,0.16,0.7,0.32,1.16,0.5c0.55,0.23,1.01,0.45,1.38,0.67
			c0.37,0.22,0.65,0.45,0.86,0.7s0.36,0.51,0.45,0.8c0.09,0.29,0.13,0.6,0.13,0.95c0,0.51-0.13,1.02-0.39,1.51
			c-0.26,0.5-0.66,0.9-1.22,1.23s-1.27,0.48-2.14,0.48C199.01,299.1,198.35,298.98,197.77,298.74z"/>
		<path d="M205.75,298.9v-1.06h2.21v-9.09h-2.09v-1.06h5.56v1.06h-2.21v9.11h2.32v1.04H205.75z"/>
		<path d="M217.04,298.9v-10.08h-3.19v-1.13h7.78v1.13h-3.31v10.08H217.04z"/>
		<path d="M233.1,298.03c-0.61-0.71-0.91-1.71-0.91-3v-7.34h1.22h0.18v0.13c-0.07,0.07-0.12,0.15-0.13,0.23s-0.03,0.23-0.03,0.43
			v6.57c0,0.91,0.18,1.64,0.53,2.18s0.97,0.81,1.86,0.81c0.9,0,1.53-0.27,1.89-0.81c0.36-0.54,0.54-1.28,0.54-2.23v-7.31h1.21v7.29
			c0,0.95-0.15,1.73-0.45,2.33s-0.72,1.06-1.27,1.35s-1.19,0.44-1.94,0.44C234.61,299.1,233.71,298.74,233.1,298.03z"/>
		<path d="M242.77,298.74c-0.58-0.24-1.09-0.59-1.54-1.06l0.65-1.13l0.07-0.16l0.13,0.07c0.02,0.08,0.05,0.18,0.09,0.28
			s0.12,0.23,0.25,0.37c0.31,0.26,0.67,0.47,1.09,0.63c0.41,0.16,0.88,0.23,1.41,0.23c0.34,0,0.64-0.05,0.93-0.15
			s0.53-0.24,0.74-0.41c0.21-0.17,0.37-0.37,0.49-0.61c0.11-0.23,0.17-0.48,0.17-0.74c0-0.2-0.02-0.39-0.06-0.56
			c-0.04-0.17-0.12-0.32-0.23-0.46c-0.11-0.14-0.27-0.27-0.46-0.41c-0.19-0.14-0.44-0.28-0.74-0.44s-0.66-0.32-1.08-0.5
			c-0.78-0.3-1.4-0.62-1.84-0.98c-0.45-0.35-0.77-0.73-0.95-1.12c-0.19-0.39-0.28-0.8-0.28-1.22c0-0.55,0.14-1.03,0.41-1.44
			c0.28-0.41,0.67-0.73,1.18-0.97s1.12-0.35,1.83-0.35c0.41,0,0.8,0.06,1.18,0.17c0.38,0.11,0.73,0.27,1.06,0.48
			c0.33,0.2,0.62,0.46,0.87,0.76l-0.7,0.94l-0.11,0.14l-0.11-0.07c-0.01-0.1-0.04-0.19-0.07-0.29c-0.04-0.1-0.12-0.22-0.25-0.36
			c-0.29-0.28-0.59-0.46-0.92-0.57s-0.71-0.15-1.15-0.15c-0.3,0-0.57,0.04-0.8,0.13c-0.23,0.08-0.43,0.2-0.6,0.36
			c-0.17,0.15-0.3,0.33-0.39,0.53c-0.09,0.2-0.13,0.4-0.13,0.62c0,0.2,0.02,0.39,0.07,0.56s0.13,0.33,0.25,0.48s0.29,0.31,0.5,0.47
			s0.47,0.31,0.79,0.47c0.32,0.16,0.71,0.32,1.16,0.5c0.55,0.23,1.01,0.45,1.38,0.67c0.37,0.22,0.65,0.45,0.86,0.7
			c0.21,0.24,0.36,0.51,0.45,0.8c0.09,0.29,0.14,0.6,0.14,0.95c0,0.51-0.13,1.02-0.39,1.51c-0.26,0.5-0.66,0.9-1.21,1.23
			s-1.27,0.48-2.14,0.48C244.01,299.1,243.35,298.98,242.77,298.74z"/>
	</g>
	<path class="st1" d="M258.21,346.8c0-20.32-16.47-36.8-36.8-36.8h0h-13.81c-21.27,0-38.51,17.24-38.51,38.51v13.81
		c0,21.27,17.24,38.51,38.51,38.51h13.81h0c20.32,0,36.8-16.47,36.8-36.8V346.8z"/>
	<path class="st0" d="M237.81,328.43h-1.02h-5.73h-1.02h-5.73h-1.02h-5.73h-1.02h-5.73h-1.02h-5.73h-1.02h-5.76h-1.02h-5.74h-1.02
		c-1.91,0-2.86,0.95-2.86,2.86v1.02v5.73v1.02v5.73v1.02v5.73v1.02v5.73v1.02v5.73v1.02v5.73v1.02v5.73v1.02
		c0,1.95,0.95,2.91,2.86,2.91h1.02h5.73h1.02h5.73h1.02h5.73h1.02h5.73h1.02h5.73h1.02H230h1.02h5.73h1.02
		c1.91,0,2.86-0.95,2.86-2.86v-1.02v-5.73v-1.02v-5.73v-1.02v-5.73v-1.02v-5.73v-1.02v-5.73v-1.02v-5.76v-1.02v-5.74v-1.02
		C240.67,329.38,239.72,328.43,237.81,328.43z M233.93,366.06v5.73v1.02c0,0,0,2.86-2.86,2.86h-1.02h-5.73h-1.02
		c0,0-2.86,0-2.86-2.86v-1.02c0-1.91-0.95-2.86-2.86-2.86h-1.02c0,0-2.86,0-2.86-2.86v-1.02c0,0,0-2.86,2.86-2.86h1.02
		c1.91,0,2.86-0.95,2.86-2.86v-1.02c0,0,0-2.86,2.86-2.86h1.02c0,0,2.86,0,2.86,2.86v1.02c0,1.91,0.95,2.86,2.86,2.86h1.02
		c0,0,2.86,0,2.86,2.86V366.06z M233.93,339.06v5.73v1.02c0,0,0,2.86-2.86,2.86h-1.02c0,0-2.86,0-2.86-2.86v-1.02
		c0-1.91-0.95-2.86-2.86-2.86h-1.02c-1.91,0-2.86,0.95-2.86,2.86v1.02c0,0,0,2.86-2.86,2.86h-1.02c0,0-2.86,0-2.86-2.86v-1.02
		c0-1.91-0.95-2.86-2.86-2.86h-1.02c-1.91,0-2.86,0.95-2.86,2.86v1.02c0,0,0,2.86-2.86,2.86h-1.02c-1.91,0-2.86,0.95-2.86,2.86v1.02
		c0,1.91,0.95,2.86,2.86,2.86h1.02c0,0,2.86,0,2.86,2.86v1.02c0,0,0,2.86-2.86,2.86h-1.02c-1.91,0-2.86,0.95-2.86,2.86v1.02
		c0,1.91,0.95,2.86,2.86,2.86h1.02c0,0,2.86,0,2.86,2.86v1.02c0,0,0,2.86-2.86,2.86h-1.02h-5.76h-1.02c0,0-2.86,0-2.86-2.86v-1.02
		v-5.73v-1.02v-5.73v-1.02v-5.73v-1.02v-5.73v-1.02v-5.73v-1.02c0,0,0-2.86,2.86-2.86h1.02h5.73h1.02h5.73h1.02h5.73h1.02h5.73h1.02
		h5.73h1.02c0,0,2.86,0,2.86,2.86v1.02H233.93z"/>
</g>
<g>
	<g>
		<path d="M505.41,417.02V405.8h6.64v1.28h-5.2v3.24h4.19v1.28h-4.19v5.42H505.41z"/>
		<path d="M514.02,417.02V405.8h3.4c0.9,0,1.63,0.13,2.19,0.4c0.56,0.26,0.97,0.64,1.22,1.12c0.26,0.49,0.39,1.06,0.39,1.72
			c0,0.41-0.09,0.82-0.27,1.24s-0.44,0.79-0.77,1.1c-0.34,0.31-0.73,0.54-1.19,0.68l2.54,4.95h-1.66l-2.41-4.86h-1.89v4.86H514.02z
			 M515.57,410.86h2c0.72,0,1.25-0.17,1.58-0.5s0.5-0.77,0.5-1.31c0-0.35-0.07-0.66-0.22-0.94c-0.14-0.28-0.37-0.51-0.68-0.68
			c-0.31-0.17-0.71-0.25-1.19-0.25h-2V410.86z"/>
		<path d="M526.6,417.21c-0.88,0-1.62-0.22-2.22-0.66c-0.61-0.44-1.07-1.09-1.39-1.96c-0.32-0.86-0.48-1.9-0.48-3.12
			c0-1.2,0.16-2.22,0.48-3.08s0.78-1.51,1.39-1.97c0.61-0.46,1.35-0.69,2.22-0.69s1.61,0.23,2.21,0.69c0.6,0.46,1.06,1.12,1.38,1.97
			c0.32,0.86,0.48,1.88,0.48,3.08c0,1.22-0.16,2.26-0.48,3.12c-0.32,0.86-0.78,1.51-1.38,1.96
			C528.21,416.99,527.48,417.21,526.6,417.21z M526.6,415.94c0.53,0,0.98-0.17,1.36-0.51c0.38-0.34,0.67-0.84,0.86-1.51
			s0.3-1.48,0.3-2.45c0-0.92-0.1-1.71-0.3-2.38s-0.49-1.17-0.86-1.53c-0.38-0.36-0.83-0.54-1.36-0.54c-0.53,0-0.98,0.18-1.37,0.54
			c-0.38,0.36-0.67,0.87-0.87,1.53s-0.3,1.46-0.3,2.38c0,0.97,0.1,1.78,0.3,2.45s0.49,1.17,0.87,1.51
			C525.62,415.77,526.07,415.94,526.6,415.94z"/>
		<path d="M531.91,405.8h1.51l4.41,8.01l-0.04-8.01h1.4h0.18v0.14c-0.07,0.07-0.12,0.15-0.13,0.23c-0.02,0.08-0.03,0.23-0.03,0.43
			v10.4h-1.3l-4.61-8.5v8.5h-1.4V405.8z"/>
		<path d="M543.72,417.02v-9.88h-3.13v-1.33h7.9v1.33h-3.26v9.88H543.72z"/>
		<path d="M550.07,417.02V405.8h3.67c0.85,0,1.54,0.15,2.08,0.44c0.53,0.29,0.93,0.68,1.18,1.16c0.25,0.48,0.38,1.01,0.38,1.6
			c0,0.44-0.07,0.86-0.21,1.23s-0.35,0.71-0.64,1c-0.29,0.29-0.65,0.51-1.1,0.67c-0.44,0.16-0.98,0.24-1.6,0.24h-2.2v4.86H550.07z
			 M551.64,410.84h2.05c0.5,0,0.91-0.08,1.22-0.22c0.31-0.15,0.54-0.36,0.68-0.64c0.14-0.28,0.22-0.59,0.22-0.94
			s-0.07-0.66-0.22-0.94c-0.14-0.28-0.37-0.5-0.68-0.67c-0.31-0.17-0.71-0.25-1.21-0.25h-2.07V410.84z"/>
		<path d="M562.56,408.89l-2.72,8.12h-1.49l4.01-11.29h0.43l4.01,11.29h-1.55L562.56,408.89z M564.56,413.97h-4.18l0.27-1.13h3.6
			L564.56,413.97z"/>
		<path d="M569.71,416.52c-0.66-0.47-1.17-1.13-1.52-1.98c-0.35-0.85-0.53-1.85-0.53-2.98c0-0.96,0.09-1.77,0.28-2.45
			c0.19-0.68,0.44-1.23,0.76-1.68c0.32-0.44,0.68-0.79,1.07-1.04c0.39-0.25,0.78-0.42,1.17-0.52c0.39-0.1,0.75-0.14,1.07-0.14
			c0.47,0,0.92,0.08,1.35,0.24c0.43,0.16,0.83,0.38,1.19,0.66c0.36,0.28,0.64,0.61,0.85,1.01l-0.97,0.86l-0.14,0.13l-0.09-0.11
			c0.01-0.1,0-0.19-0.04-0.27s-0.12-0.2-0.25-0.36c-0.17-0.19-0.34-0.35-0.52-0.48c-0.18-0.13-0.38-0.22-0.6-0.28
			c-0.22-0.06-0.47-0.09-0.75-0.09c-0.31,0-0.61,0.04-0.89,0.12c-0.28,0.08-0.54,0.23-0.78,0.44c-0.24,0.21-0.45,0.48-0.63,0.81
			c-0.18,0.33-0.32,0.73-0.41,1.22c-0.1,0.48-0.14,1.05-0.14,1.69c0,0.75,0.07,1.41,0.2,1.99c0.13,0.57,0.33,1.05,0.58,1.44
			s0.56,0.68,0.92,0.88c0.35,0.2,0.75,0.29,1.2,0.29c0.16,0,0.32-0.01,0.5-0.03c0.17-0.02,0.35-0.05,0.52-0.11s0.34-0.12,0.5-0.21
			c0.16-0.08,0.32-0.18,0.46-0.29v-2.45h-1.98v-1.3h3.37v4.5c-0.53,0.39-1.08,0.69-1.65,0.88c-0.57,0.19-1.14,0.29-1.72,0.29
			C571.16,417.21,570.37,416.98,569.71,416.52z"/>
		<path d="M577.09,417.02V405.8h7.02v1.3h-5.56v3.4h4.59v1.33h-4.59v3.89h5.51v1.3H577.09z"/>
	</g>
	<path class="st1" d="M589.3,464.8c0-20.32-16.47-36.8-36.8-36.8h0h-13.81c-21.27,0-38.51,17.24-38.51,38.51v13.81
		c0,21.27,17.24,38.51,38.51,38.51h13.81h0c20.32,0,36.8-16.47,36.8-36.8V464.8z"/>
	<path class="st0" d="M564.34,451.1h-0.97c-1.8,0-2.71,0.9-2.71,2.71v0.97v5.41v0.97c0,0,0,2.71-2.71,2.71h-0.97
		c0,0-2.71,0-2.71-2.71v-0.97v-5.41v-0.97v-5.41v-0.97c0.01-1.81-0.89-2.71-2.7-2.71h-0.97c-1.8,0-2.71,0.9-2.71,2.71v0.97v5.41
		v0.97c0,0,0,2.71-2.71,2.71h-0.97c0,0-2.71,0-2.71-2.71v-0.97c0-1.8-0.9-2.71-2.71-2.71h-0.97c-1.8,0-2.71,0.9-2.71,2.71v0.97v5.41
		v0.97c0,0,0,2.71-2.71,2.71h-0.97c0,0-2.71,0-2.71-2.71v-0.97v-5.41v-0.97v-5.41v-0.97c0.03-1.81-0.88-2.71-2.68-2.71h-0.97
		c-1.8,0-2.71,0.9-2.71,2.71v0.97v5.41v0.97v5.41v0.97v5.41v0.97v5.41v0.97v5.41v0.97v5.41v0.97c0,1.8,0.9,2.71,2.71,2.71h0.97
		c1.8,0,2.71-0.9,2.71-2.71v-0.97v-5.41v-0.97v-5.41v-0.97c0,0,0-2.71,2.71-2.71h0.97c0,0,2.71,0,2.71,2.71v0.97v5.41v0.97v5.41
		v0.97v5.41v0.97v5.41v0.97c0,1.8,0.9,2.71,2.71,2.71h0.97c1.8,0,2.71-0.9,2.71-2.71v-0.97v-5.41v-0.97v-5.41v-0.97
		c0,0,0-2.71,2.71-2.71h0.97c0,0,2.71,0,2.71,2.71v0.97v5.41v0.97v5.41v0.97c0,1.8,0.9,2.71,2.71,2.71h0.97
		c1.8,0,2.71-0.9,2.71-2.71v-0.97v-5.41v-0.97v-5.41v-0.97v-5.41v-0.97v-5.41v-0.97c0,0,0-2.71,2.71-2.71H558c0,0,2.71,0,2.71,2.71
		v0.97v5.41v0.97v5.41v0.97c0,1.8,0.9,2.71,2.71,2.71h0.97c1.8,0,2.71-0.9,2.71-2.71v-0.97v-5.41v-0.97v-5.41v-0.97v-5.41v-0.97
		v-5.41v-0.97v-5.41v-0.97C567.05,452.01,566.14,451.1,564.34,451.1z M547.91,473.92c0,0,0,2.71-2.71,2.71h-0.97
		c0,0-2.71,0-2.71-2.71v-0.97v-5.41v-0.97c0,0,0-2.71,2.71-2.71h0.97c0,0,2.71,0,2.71,2.71v0.97v5.41V473.92z"/>
</g>
<g>
	<g>
		<path class="st0" d="M315.49,536.97h1.22l4.72,8.32v-8.32h1.19h0.18v0.13c-0.07,0.07-0.12,0.15-0.13,0.23
			c-0.02,0.08-0.03,0.23-0.03,0.43v10.42h-0.99l-4.95-8.82v8.82h-1.21V536.97z"/>
		<path class="st0" d="M324.66,548.18v-11.21h6.88v1.12h-5.69v3.67h4.7v1.15h-4.7v4.16h5.63v1.12H324.66z"/>
		<path class="st0" d="M334.7,548.18l-1.8-11.21h1.17l1.21,7.58l1.8-6.75h0.4l1.82,6.79l1.03-7.61h1.06l-1.78,11.21h-0.49
			l-1.93-7.33l-1.96,7.33H334.7z"/>
		<path class="st0" d="M344.07,548.02c-0.58-0.24-1.1-0.59-1.54-1.06l0.65-1.13l0.07-0.16l0.13,0.07c0.02,0.08,0.05,0.18,0.09,0.28
			c0.04,0.1,0.12,0.23,0.25,0.37c0.31,0.26,0.67,0.47,1.09,0.63c0.41,0.16,0.88,0.23,1.41,0.23c0.34,0,0.65-0.05,0.93-0.15
			c0.28-0.1,0.53-0.24,0.74-0.41c0.21-0.17,0.37-0.37,0.49-0.61s0.17-0.48,0.17-0.74c0-0.2-0.02-0.39-0.06-0.56
			c-0.04-0.17-0.12-0.32-0.23-0.46c-0.11-0.14-0.27-0.28-0.46-0.41c-0.19-0.14-0.44-0.28-0.74-0.44c-0.3-0.16-0.66-0.32-1.08-0.5
			c-0.78-0.3-1.4-0.62-1.85-0.98c-0.45-0.35-0.77-0.73-0.95-1.12c-0.19-0.39-0.28-0.8-0.28-1.22c0-0.55,0.14-1.03,0.41-1.44
			c0.28-0.41,0.67-0.73,1.18-0.97c0.51-0.23,1.12-0.35,1.83-0.35c0.41,0,0.8,0.06,1.18,0.17c0.38,0.11,0.73,0.27,1.06,0.48
			s0.62,0.46,0.87,0.76l-0.7,0.94l-0.11,0.14l-0.11-0.07c-0.01-0.1-0.04-0.19-0.07-0.29c-0.04-0.1-0.12-0.22-0.25-0.36
			c-0.29-0.28-0.59-0.46-0.92-0.57c-0.32-0.1-0.71-0.15-1.15-0.15c-0.3,0-0.57,0.04-0.8,0.13c-0.23,0.08-0.44,0.2-0.6,0.36
			c-0.17,0.15-0.3,0.33-0.39,0.53c-0.09,0.2-0.14,0.4-0.14,0.62c0,0.2,0.02,0.39,0.07,0.56c0.05,0.17,0.13,0.33,0.25,0.48
			c0.12,0.16,0.28,0.31,0.5,0.47c0.21,0.16,0.47,0.31,0.79,0.46c0.32,0.16,0.7,0.32,1.16,0.5c0.55,0.23,1.01,0.45,1.38,0.67
			c0.37,0.22,0.65,0.45,0.86,0.7c0.21,0.24,0.36,0.51,0.45,0.8c0.09,0.29,0.13,0.6,0.13,0.95c0,0.51-0.13,1.02-0.39,1.51
			c-0.26,0.5-0.66,0.9-1.22,1.23s-1.27,0.48-2.14,0.48C345.31,548.38,344.65,548.26,344.07,548.02z"/>
	</g>
	<path class="st1" d="M377.31,597.38c0-20.32-16.47-36.8-36.8-36.8h0h-13.81c-21.27,0-38.51,17.24-38.51,38.51v13.81
		c0,21.27,17.24,38.51,38.51,38.51h13.81h0c20.32,0,36.8-16.47,36.8-36.8V597.38z"/>
	<path class="st0" d="M350.14,579h-1.03h-5.72h-1.03h-5.72h-1.03h-5.72h-1.03h-5.72h-1.03h-5.72h-1.03c-1.91,0-2.86,0.95-2.86,2.86
		v1.03v5.72v1.03v5.72v1.03v5.72v1.03v5.72v1.03v5.72v1.03v5.72v1.03v5.72v1.03c0,1.91,0.95,2.86,2.86,2.86h1.03h5.72h1.03h5.72
		h1.03h5.72h1.03h5.72h1.03h5.72h1.03c1.91,0,2.86-0.95,2.86-2.86v-1.03v-5.72v-1.03v-5.72v-1.03v-5.72v-1.03v-5.72v-1.03v-5.72
		v-1.03v-5.72v-1.03v-5.72v-1.03C353,579.95,352.05,579,350.14,579z M346.25,596.39c0,0,0,2.86-2.86,2.86h-1.03h-5.72h-1.03
		c-1.91,0-2.86,0.95-2.86,2.86v1.03c0,1.91,0.95,2.86,2.86,2.86h1.03h5.72h1.03c0,0,2.86,0,2.86,2.86v1.03c0,0,0,2.86-2.86,2.86
		h-1.03c-1.91,0-2.86,0.95-2.86,2.86v1.03c0,1.91,0.95,2.86,2.86,2.86h1.03c0,0,2.86,0,2.86,2.86v1.03c0,0,0,2.86-2.86,2.86h-1.03
		h-5.72h-1.03h-5.72h-1.03h-5.72h-1.03c0,0-2.86,0-2.86-2.86v-1.03c0,0,0-2.86,2.86-2.86h1.03h5.72h1.03c1.91,0,2.86-0.95,2.86-2.86
		v-1.03c0-1.91-0.95-2.86-2.86-2.86h-1.03h-5.72h-1.03c0,0-2.86,0-2.86-2.86v-1.03c0,0,0-2.86,2.86-2.86h1.03
		c1.91,0,2.86-0.95,2.86-2.86v-1.03c0-1.91-0.95-2.86-2.86-2.86h-1.03c0,0-2.86,0-2.86-2.86v-1.03v-5.72v-1.03c0,0,0-2.86,2.86-2.86
		h1.03c0,0,2.86,0,2.86,2.86v1.03c0,1.91,0.95,2.86,2.86,2.86h1.03c1.91,0,2.86-0.95,2.86-2.86v-1.03c0,0,0-2.86,2.86-2.86h1.03
		c0,0,2.86,0,2.86,2.86v1.03c0,1.91,0.95,2.86,2.86,2.86h1.03c0,0,2.86,0,2.86,2.86V596.39z"/>
</g>
<g>
	<g>
		<path d="M562.25,177.18V167.1h-3.19v-1.13h7.78v1.13h-3.31v10.08H562.25z"/>
		<path d="M568.4,165.97h1.3h0.18v0.13c-0.07,0.07-0.12,0.15-0.13,0.23c-0.02,0.08-0.03,0.23-0.03,0.43v4h4.39v-4.79h1.3h0.18v0.13
			c-0.07,0.07-0.12,0.15-0.14,0.23c-0.02,0.08-0.03,0.23-0.03,0.43v10.42h-1.33v-5.35h-4.37v5.35h-1.31V165.97z"/>
		<path d="M577.56,177.18v-11.21h6.88v1.12h-5.69v3.67h4.7v1.15h-4.7v4.16h5.63v1.12H577.56z"/>
		<path d="M599,177.38c-0.85,0-1.58-0.22-2.18-0.67c-0.6-0.44-1.06-1.1-1.37-1.95c-0.31-0.86-0.47-1.9-0.47-3.12
			c0-1.19,0.16-2.21,0.47-3.07c0.31-0.86,0.77-1.52,1.37-1.98c0.6-0.46,1.33-0.69,2.18-0.69c0.86,0,1.59,0.23,2.19,0.69
			c0.59,0.46,1.05,1.12,1.36,1.98c0.31,0.86,0.47,1.88,0.47,3.07c0,1.22-0.16,2.27-0.47,3.12c-0.31,0.86-0.76,1.51-1.36,1.95
			C600.59,177.16,599.87,177.38,599,177.38z M599,176.28c0.58,0,1.06-0.18,1.47-0.54s0.71-0.88,0.93-1.58
			c0.22-0.69,0.32-1.53,0.32-2.53c0-0.95-0.11-1.77-0.32-2.46c-0.22-0.69-0.52-1.23-0.93-1.61c-0.4-0.38-0.89-0.58-1.47-0.58
			c-0.56,0-1.05,0.19-1.46,0.58c-0.41,0.38-0.72,0.92-0.94,1.61s-0.32,1.51-0.32,2.46c0,1,0.11,1.84,0.32,2.53
			c0.22,0.69,0.53,1.22,0.94,1.58S598.44,176.28,599,176.28z"/>
		<path d="M607.77,177.18l-3.82-11.23h1.31l2.88,8.57l2.72-8.55h1.24l-3.76,11.21H607.77z"/>
		<path d="M613.56,177.18v-11.21h6.88v1.12h-5.69v3.67h4.7v1.15h-4.7v4.16h5.63v1.12H613.56z"/>
		<path d="M622.51,177.18v-11.21h3.31c0.89,0,1.6,0.13,2.15,0.4s0.95,0.64,1.2,1.12c0.25,0.48,0.38,1.04,0.38,1.69
			c0,0.42-0.09,0.84-0.28,1.26c-0.19,0.42-0.45,0.79-0.79,1.1c-0.34,0.31-0.75,0.53-1.21,0.65l2.59,5h-1.4l-2.48-4.95h-2.18v4.95
			H622.51z M623.79,171.12h2.18c0.8,0,1.39-0.18,1.75-0.53c0.36-0.35,0.54-0.82,0.54-1.41c0-0.37-0.08-0.71-0.23-1.02
			c-0.16-0.31-0.4-0.55-0.74-0.73c-0.34-0.18-0.77-0.27-1.31-0.27h-2.18V171.12z"/>
		<path d="M633.49,171.57l-0.88,0.97v4.64h-1.35v-11.21h1.33h0.18v0.13c-0.07,0.07-0.12,0.15-0.13,0.23
			c-0.02,0.08-0.03,0.23-0.03,0.43v4.37l4.68-5.26c0.07,0.01,0.14,0.02,0.22,0.04c0.07,0.01,0.15,0.02,0.22,0.03
			c0.08,0.01,0.16,0.01,0.24,0.02c0.08,0.01,0.17,0.01,0.25,0.01h0.47l-4.25,4.84l4.54,6.37l-1.62,0.07L633.49,171.57z"/>
		<path d="M640.96,177.18v-1.06h2.21v-9.09h-2.09v-1.06h5.56v1.06h-2.21v9.11h2.32v1.04H640.96z"/>
		<path d="M649.69,165.97h1.3h0.18v0.13c-0.07,0.07-0.12,0.15-0.13,0.23c-0.02,0.08-0.03,0.23-0.03,0.43v9.34h5.4v1.08h-6.71V165.97
			z"/>
		<path d="M658.69,165.97h1.3h0.18v0.13c-0.07,0.07-0.12,0.15-0.13,0.23c-0.02,0.08-0.03,0.23-0.03,0.43v9.34h5.4v1.08h-6.71V165.97
			z"/>
		<path d="M676.91,177.18v-11.21h6.46v1.1h-5.2v3.51h4.19v1.1h-4.19v5.51H676.91z"/>
		<path d="M685.56,177.18v-11.21h6.88v1.12h-5.69v3.67h4.7v1.15h-4.7v4.16h5.63v1.12H685.56z"/>
		<path d="M695.98,177.02c-0.58-0.24-1.09-0.59-1.54-1.06l0.65-1.13l0.07-0.16l0.13,0.07c0.02,0.08,0.05,0.18,0.09,0.28
			s0.12,0.23,0.25,0.37c0.31,0.26,0.67,0.47,1.09,0.63c0.41,0.16,0.88,0.23,1.41,0.23c0.34,0,0.64-0.05,0.93-0.15
			s0.53-0.24,0.74-0.41c0.21-0.17,0.37-0.37,0.49-0.61c0.11-0.23,0.17-0.48,0.17-0.74c0-0.2-0.02-0.39-0.06-0.56
			c-0.04-0.17-0.12-0.32-0.23-0.46c-0.11-0.14-0.27-0.27-0.46-0.41c-0.19-0.14-0.44-0.28-0.74-0.44s-0.66-0.32-1.08-0.5
			c-0.78-0.3-1.4-0.62-1.84-0.98c-0.45-0.35-0.77-0.73-0.95-1.12c-0.19-0.39-0.28-0.8-0.28-1.22c0-0.55,0.14-1.03,0.41-1.44
			c0.28-0.41,0.67-0.73,1.18-0.97s1.12-0.35,1.83-0.35c0.41,0,0.8,0.06,1.18,0.17c0.38,0.11,0.73,0.27,1.06,0.48
			c0.33,0.2,0.62,0.46,0.87,0.76l-0.7,0.94l-0.11,0.14l-0.11-0.07c-0.01-0.1-0.04-0.19-0.07-0.29c-0.04-0.1-0.12-0.22-0.25-0.36
			c-0.29-0.28-0.59-0.46-0.92-0.57s-0.71-0.15-1.15-0.15c-0.3,0-0.57,0.04-0.8,0.13c-0.23,0.08-0.43,0.2-0.6,0.36
			c-0.17,0.15-0.3,0.33-0.39,0.53c-0.09,0.2-0.13,0.4-0.13,0.62c0,0.2,0.02,0.39,0.07,0.56s0.13,0.33,0.25,0.48s0.29,0.31,0.5,0.47
			s0.47,0.31,0.79,0.47c0.32,0.16,0.71,0.32,1.16,0.5c0.55,0.23,1.01,0.45,1.38,0.67c0.37,0.22,0.65,0.45,0.86,0.7
			c0.21,0.24,0.36,0.51,0.45,0.8c0.09,0.29,0.14,0.6,0.14,0.95c0,0.51-0.13,1.02-0.39,1.51c-0.26,0.5-0.66,0.9-1.21,1.23
			s-1.27,0.48-2.14,0.48C697.21,177.38,696.56,177.26,695.98,177.02z"/>
		<path d="M706.25,177.18V167.1h-3.19v-1.13h7.78v1.13h-3.31v10.08H706.25z"/>
		<path d="M712.96,177.18v-1.06h2.21v-9.09h-2.09v-1.06h5.56v1.06h-2.21v9.11h2.32v1.04H712.96z"/>
		<path d="M724.77,177.18l-3.82-11.23h1.31l2.88,8.57l2.72-8.55h1.24l-3.76,11.21H724.77z"/>
		<path d="M733.98,168.74l-2.95,8.44h-1.24l4.14-11.29h0.14l4.14,11.29h-1.3L733.98,168.74z M735.93,173.94h-4.07l0.25-0.97h3.53
			L735.93,173.94z"/>
		<path d="M739.69,165.97h1.3h0.18v0.13c-0.07,0.07-0.12,0.15-0.13,0.23c-0.02,0.08-0.03,0.23-0.03,0.43v9.34h5.4v1.08h-6.71V165.97
			z"/>
	</g>
	<path class="st1" d="M698.82,225c0-20.32-16.47-36.8-36.8-36.8h0h-13.81c-21.27,0-38.51,17.24-38.51,38.51v13.81
		c0,21.27,17.24,38.51,38.51,38.51h13.81h0c20.32,0,36.8-16.47,36.8-36.8V225z"/>
	<path class="st0" d="M670.13,206.88h-1.16h-6.48h-1.16h-6.48h-1.16h-6.48h-1.16h-6.48h-1.16c-2.16,0-3.24,1.08-3.24,3.24v1.16v6.48
		v1.16v6.48v1.16v6.48v1.16v6.48v1.16v6.48v1.16v6.48v1.16c0,2.16,1.08,3.24,3.24,3.24h1.16h6.48h1.16h6.48h1.16h6.48h1.16h6.48
		h1.16c2.16,0,3.24-1.08,3.24-3.24v-1.16v-6.48v-1.16v-6.48v-1.16v-6.48v-1.16v-6.48v-1.16v-6.48v-1.16v-6.48v-1.16
		C673.37,207.95,672.29,206.88,670.13,206.88z M642.8,217.76c0,0,0-3.24,3.24-3.24h1.16c0,0,3.24,0,3.24,3.24v1.16
		c0,0,0,3.24-3.24,3.24h-1.16c0,0-3.24,0-3.24-3.24V217.76z M658.08,233.04v1.16c0,0,0,3.24-3.24,3.24h-1.16c0,0-3.24,0-3.24-3.24
		v-1.16c0,0,0-3.24,3.24-3.24h1.16C654.84,229.8,658.08,229.8,658.08,233.04z M646.04,252.73c0,0-3.24,0-3.24-3.24v-1.16
		c0,0,0-3.24,3.24-3.24h1.16c0,0,3.24,0,3.24,3.24v1.16c0,0,0,3.24-3.24,3.24H646.04z M665.73,249.49c0,0,0,3.24-3.24,3.24h-1.16
		c0,0-3.24,0-3.24-3.24v-1.16c0,0,0-3.24,3.24-3.24h1.16c0,0,3.24,0,3.24,3.24V249.49z M665.73,218.92c0,0,0,3.24-3.24,3.24h-1.16
		c0,0-3.24,0-3.24-3.24v-1.16c0,0,0-3.24,3.24-3.24h1.16c0,0,3.24,0,3.24,3.24V218.92z"/>
</g>
<g>
	<g>
		<path d="M663.21,504.18v-11.21h6.88v1.12h-5.69v3.67h4.7v1.15h-4.7v4.16h5.63v1.12H663.21z"/>
		<path d="M675.41,504.18l-3.82-11.23h1.31l2.88,8.57l2.72-8.55h1.24l-3.76,11.21H675.41z"/>
		<path d="M681.21,504.18v-11.21h6.88v1.12h-5.69v3.67h4.7v1.15h-4.7v4.16h5.63v1.12H681.21z"/>
		<path d="M690.05,492.97h1.22l4.71,8.32v-8.32h1.19h0.18v0.13c-0.07,0.07-0.12,0.15-0.13,0.23c-0.02,0.08-0.03,0.23-0.03,0.43
			v10.42h-0.99l-4.95-8.82v8.82h-1.21V492.97z"/>
		<path d="M701.89,504.18V494.1h-3.19v-1.13h7.78v1.13h-3.31v10.08H701.89z"/>
		<path d="M709.62,504.02c-0.58-0.24-1.09-0.59-1.54-1.06l0.65-1.13l0.07-0.16l0.13,0.07c0.02,0.08,0.05,0.18,0.09,0.28
			c0.04,0.1,0.12,0.23,0.25,0.37c0.31,0.26,0.67,0.47,1.09,0.63c0.41,0.16,0.88,0.23,1.41,0.23c0.34,0,0.64-0.05,0.93-0.15
			c0.28-0.1,0.53-0.24,0.74-0.41c0.21-0.17,0.37-0.37,0.49-0.61c0.11-0.23,0.17-0.48,0.17-0.74c0-0.2-0.02-0.39-0.06-0.56
			c-0.04-0.17-0.12-0.32-0.23-0.46c-0.11-0.14-0.27-0.28-0.46-0.41c-0.19-0.14-0.44-0.28-0.74-0.44s-0.66-0.32-1.08-0.5
			c-0.78-0.3-1.4-0.62-1.84-0.98c-0.45-0.35-0.77-0.73-0.95-1.12c-0.19-0.39-0.28-0.8-0.28-1.22c0-0.55,0.14-1.03,0.41-1.44
			s0.67-0.73,1.18-0.97c0.51-0.23,1.12-0.35,1.83-0.35c0.41,0,0.8,0.06,1.18,0.17c0.38,0.11,0.73,0.27,1.06,0.48
			s0.62,0.46,0.87,0.76l-0.7,0.94l-0.11,0.14l-0.11-0.07c-0.01-0.1-0.04-0.19-0.07-0.29c-0.04-0.1-0.12-0.22-0.25-0.36
			c-0.29-0.28-0.59-0.46-0.92-0.57c-0.32-0.1-0.71-0.15-1.15-0.15c-0.3,0-0.57,0.04-0.8,0.13c-0.23,0.08-0.43,0.2-0.6,0.36
			c-0.17,0.15-0.3,0.33-0.39,0.53c-0.09,0.2-0.13,0.4-0.13,0.62c0,0.2,0.02,0.39,0.07,0.56s0.13,0.33,0.25,0.48s0.29,0.31,0.5,0.47
			s0.47,0.31,0.79,0.46c0.32,0.16,0.71,0.32,1.16,0.5c0.55,0.23,1.01,0.45,1.38,0.67c0.37,0.22,0.65,0.45,0.86,0.7
			c0.21,0.24,0.36,0.51,0.45,0.8c0.09,0.29,0.14,0.6,0.14,0.95c0,0.51-0.13,1.02-0.39,1.51s-0.66,0.9-1.21,1.23
			s-1.27,0.48-2.14,0.48C710.86,504.38,710.2,504.26,709.62,504.02z"/>
	</g>
	<path class="st1" d="M733.82,552.38c0-20.32-16.47-36.8-36.8-36.8h0h-13.81c-21.27,0-38.51,17.24-38.51,38.51v13.81
		c0,21.27,17.24,38.51,38.51,38.51h13.81h0c20.32,0,36.8-16.47,36.8-36.8V552.38z"/>
	<path class="st0" d="M709.25,545.39h1.58c2.94,0,4.41-1.47,4.41-4.41v-1.57c-0.01-2.94-1.48-4.41-4.42-4.41h-1.58h-8.82h-1.58
		h-8.82h-1.58h-8.82h-1.58c-2.94,0-4.41,1.47-4.41,4.41v1.58c0,0,0,4.41-4.41,4.41h-1.55c-2.94-0.01-4.41,1.46-4.41,4.4v1.58
		c0,2.94,1.47,4.41,4.41,4.41h1.58c0,0,4.41,0,4.41,4.41v1.58c0,2.94,1.47,4.41,4.41,4.41h1.58c0,0,4.41,0,4.41,4.41v1.58
		c0,0,0,4.41-4.41,4.41h-1.58c-2.94,0-4.41,1.47-4.41,4.41v1.58c0,2.94,1.47,4.41,4.41,4.41h1.58h8.82h1.58h8.82h1.58h8.82h1.58
		c2.94,0,4.41-1.47,4.41-4.41v-1.58c0-2.94-1.47-4.41-4.41-4.41h-1.58h-8.82h-1.58c0,0-4.41,0-4.41-4.41v-1.58c0,0,0-4.41,4.41-4.41
		h1.58h8.82h1.58c2.94,0,4.41-1.47,4.41-4.41v-1.58c0-2.94-1.47-4.41-4.41-4.41h-1.58c0,0-4.41,0-4.41-4.41v-1.58
		C704.84,549.8,704.84,545.39,709.25,545.39z M694.44,551.37c0,0,0,4.41-4.41,4.41h-1.58c0,0-4.41,0-4.41-4.41v-1.58
		c0,0,0-4.41,4.41-4.41h1.58c0,0,4.41,0,4.41,4.41V551.37z"/>
</g>
<g>
	<path d="M814.38,343.84c-0.53-0.22-1-0.57-1.4-1.03c-0.4-0.47-0.72-1.06-0.94-1.78c-0.23-0.72-0.34-1.58-0.34-2.57
		c0-0.87,0.08-1.64,0.25-2.29c0.17-0.65,0.4-1.2,0.69-1.65c0.29-0.45,0.63-0.81,1.01-1.07c0.38-0.26,0.77-0.46,1.19-0.58
		c0.41-0.12,0.83-0.18,1.25-0.18c0.83,0,1.53,0.2,2.12,0.59c0.58,0.4,1.02,0.93,1.32,1.6l-1.15,0.67l-0.16,0.07l-0.05-0.13
		c0.02-0.1,0.02-0.19-0.02-0.27s-0.1-0.21-0.2-0.38c-0.29-0.37-0.58-0.62-0.89-0.76s-0.63-0.2-0.96-0.2c-0.42,0-0.81,0.1-1.17,0.3
		c-0.36,0.2-0.67,0.49-0.94,0.87s-0.46,0.85-0.6,1.41c-0.14,0.56-0.21,1.19-0.21,1.9c0,0.68,0.07,1.3,0.22,1.86
		c0.15,0.56,0.36,1.03,0.62,1.43s0.57,0.7,0.93,0.92c0.35,0.22,0.74,0.32,1.14,0.32c0.3,0,0.58-0.05,0.85-0.14
		c0.27-0.1,0.52-0.25,0.75-0.45c0.23-0.2,0.43-0.44,0.59-0.72l1.08,0.76c-0.37,0.62-0.82,1.09-1.35,1.39s-1.16,0.45-1.91,0.45
		C815.48,344.17,814.91,344.06,814.38,343.84z"/>
	<path d="M824.52,344.17c-0.88,0-1.62-0.22-2.22-0.66c-0.61-0.44-1.07-1.09-1.39-1.96c-0.32-0.86-0.48-1.9-0.48-3.12
		c0-1.2,0.16-2.22,0.48-3.08c0.32-0.86,0.78-1.51,1.39-1.97c0.61-0.46,1.35-0.69,2.22-0.69s1.61,0.23,2.21,0.69
		c0.6,0.46,1.06,1.12,1.38,1.97c0.32,0.85,0.48,1.88,0.48,3.08c0,1.22-0.16,2.26-0.48,3.12c-0.32,0.86-0.78,1.51-1.38,1.96
		C826.13,343.95,825.39,344.17,824.52,344.17z M824.52,342.89c0.53,0,0.98-0.17,1.36-0.51c0.38-0.34,0.67-0.84,0.86-1.51
		c0.2-0.66,0.3-1.48,0.3-2.45c0-0.92-0.1-1.71-0.3-2.38c-0.2-0.66-0.49-1.17-0.86-1.53c-0.38-0.36-0.83-0.54-1.36-0.54
		c-0.53,0-0.98,0.18-1.37,0.54c-0.38,0.36-0.68,0.87-0.87,1.53c-0.2,0.66-0.3,1.45-0.3,2.38c0,0.97,0.1,1.78,0.3,2.45
		c0.2,0.66,0.49,1.17,0.87,1.51C823.53,342.72,823.99,342.89,824.52,342.89z"/>
	<path d="M829.68,343.97v-11.21h1.26l2.57,5.38l2.61-5.4h1.22v11.23h-1.39v-8.24l-2.2,4.37h-0.67l-2.05-4.34v8.21H829.68z"/>
	<path d="M839.96,338.97v-1.37h5.11v1.37H839.96z"/>
	<path d="M811.68,365.57v-11.21h1.26l2.57,5.38l2.61-5.4h1.22v11.23h-1.39v-8.24l-2.2,4.37h-0.67l-2.05-4.34v8.21H811.68z"/>
	<path d="M821.75,364.68c-0.63-0.73-0.95-1.73-0.95-3.01v-7.31h1.49h0.18v0.14c-0.07,0.07-0.12,0.15-0.14,0.23
		c-0.02,0.08-0.03,0.23-0.03,0.43v6.52c0,0.86,0.16,1.55,0.49,2.06c0.32,0.51,0.9,0.76,1.73,0.76s1.41-0.25,1.74-0.76
		c0.33-0.51,0.49-1.21,0.49-2.11v-7.28h1.48v7.26c0,0.95-0.16,1.73-0.47,2.34c-0.31,0.61-0.75,1.07-1.31,1.37
		c-0.56,0.3-1.21,0.45-1.95,0.45C823.31,365.77,822.38,365.41,821.75,364.68z"/>
	<path d="M829.83,354.36h1.51l4.41,8.01l-0.04-8.01h1.4h0.18v0.14c-0.07,0.07-0.12,0.15-0.13,0.23c-0.02,0.08-0.03,0.23-0.03,0.43
		v10.4h-1.3l-4.61-8.5v8.5h-1.4V354.36z"/>
	<path d="M839.39,365.57v-1.26h2.21v-8.69h-2.09v-1.26h5.78v1.26h-2.21v8.71h2.32v1.24H839.39z"/>
	<path d="M848.96,360.57v-1.37h5.11v1.37H848.96z"/>
	<path d="M814.64,387.17v-9.88h-3.13v-1.33h7.9v1.33h-3.26v9.88H814.64z"/>
	<path d="M823.85,387.17v-4.43l-3.42-6.79h1.66l2.61,5.18l2.34-5.18h1.57l-3.15,6.79v4.43H823.85z"/>
</g>
<path class="st1" d="M855.57,434.62c0-20.32-16.47-36.8-36.8-36.8h0h-13.81c-21.27,0-38.51,17.24-38.51,38.51v13.81
	c0,21.27,17.24,38.51,38.51,38.51h13.81h0c20.32,0,36.8-16.47,36.8-36.8V434.62z"/>
<path class="st0" d="M843.41,417.73h-0.97c-1.81,0-2.7,0.9-2.7,2.7v0.97c0,0,0,2.7-2.7,2.7h-0.97c-1.81,0-2.7,0.9-2.7,2.7v0.97
	c0,0,0,2.7-2.7,2.7h-0.97h-5.43h-0.97h-5.4h-0.97h-5.4h-0.98c0,0-2.7,0-2.7-2.7v-0.97c0,0,0-2.7,2.7-2.7h0.97h5.4h0.97
	c1.81,0,2.7-0.9,2.7-2.7v-0.97c0-1.81-0.9-2.7-2.7-2.7h-0.97h-5.39h-0.98h-5.4h-0.97h-5.4h-0.97c-1.81,0-2.7,0.9-2.7,2.7v0.97v5.4
	v0.97c0,1.81,0.9,2.7,2.7,2.7h0.97c0,0,2.7,0,2.7,2.7v0.97c0,0,0,2.7-2.7,2.7h-0.97h-5.4h-0.97h-5.42h-0.97c0,0-2.7,0-2.7-2.7v-0.97
	v-5.4v-0.97c0-1.81-0.9-2.7-2.7-2.7h-0.97c-1.82,0.01-2.72,0.91-2.72,2.72v0.97v5.4v0.97v5.4v0.97c0,1.81,0.9,2.7,2.7,2.7h0.97h5.4
	H786c0,0,2.7,0,2.7,2.7v0.97c0,1.81,0.9,2.7,2.7,2.7h0.97c1.81,0,2.7-0.9,2.7-2.7v-0.97c0,0,0-2.7,2.7-2.7h0.97c0,0,2.7,0,2.7,2.7
	v0.97v5.4v0.97c0,0,0,2.7-2.7,2.7h-0.94h-5.4h-0.97c-1.81,0-2.7,0.9-2.7,2.7v0.97v5.45v0.97c0,1.81,0.9,2.7,2.7,2.7h0.97
	c1.81,0,2.7-0.9,2.7-2.7v-0.97c0,0,0-2.7,2.7-2.7h0.97h5.4h0.97c1.81,0,2.7-0.9,2.7-2.7v-0.97c0,0,0-2.7,2.7-2.7h0.97
	c0,0,2.7,0,2.7,2.7v0.97v5.4v0.97c0,1.81,0.9,2.7,2.7,2.7h0.97h5.4h0.97h5.4h0.97h5.4h0.97c1.81,0,2.7-0.9,2.7-2.7v-0.97
	c0-1.81-0.9-2.7-2.7-2.7h-0.97h-5.4h-0.97c0,0-2.7,0-2.7-2.7v-0.97c0-1.81-0.9-2.7-2.7-2.7h-0.97c0,0-2.7,0-2.7-2.7v-0.97v-5.4
	v-0.97c0,0,0-2.7,2.7-2.7h0.97c0,0,2.7,0,2.7,2.7v0.97c0,1.81,0.9,2.7,2.7,2.7h0.97c0,0,2.7,0,2.7,2.7v0.97c0,1.81,0.9,2.7,2.7,2.7
	h0.97c1.81,0,2.7-0.9,2.7-2.7v-0.97v-5.4v-0.97c0-1.81-0.9-2.7-2.7-2.7h-0.97c0,0-2.7,0-2.7-2.7v-0.97c0,0,0-2.7,2.7-2.7h0.97
	c1.81,0,2.7-0.9,2.7-2.7v-0.97c0,0,0-2.7,2.7-2.7h0.97c1.81,0,2.7-0.9,2.7-2.7v-0.97v-5.46v-0.97
	C846.11,418.64,845.21,417.73,843.41,417.73 M814.23,440.54c0,0,0,2.7-2.7,2.7h-0.98c0,0-2.7,0-2.7-2.7v-0.97c0,0,0-2.7,2.7-2.7
	h0.97c0,0,2.7,0,2.7,2.7v0.97H814.23z"/>
<g>
	<path class="st2" d="M489.03,593.5c0.21,0,0.42,0,0.63,0h3.5h0.63h3.5h0.63c1.17,0.03,1.75-0.88,1.75-2.68v-0.97
		c0-1.8-0.58-2.71-1.75-2.71h-0.63h-3.5h-0.63h-3.5h-0.63h-3.5h-0.63h-3.5h-0.63h-3.5h-0.63h-3.5h-0.63c-1.16,0-1.75,0.9-1.75,2.71
		v0.97c0,1.8,0.58,2.71,1.75,2.71h0.63h3.5h0.63h3.5c0.21,0,0.42,0,0.63,0C483.95,593.52,486.49,593.51,489.03,593.5z"/>
	<path class="st2" d="M451.24,581.65c0.15,0.15,0.3,0.3,0.44,0.44l2.47,2.47l0.44,0.44l2.47,2.47l0.44,0.44
		c0.8,0.85,1.86,0.62,3.13-0.65l0.68-0.68c1.27-1.27,1.5-2.33,0.68-3.16l-0.44-0.44l-2.47-2.47l-0.44-0.44l-2.47-2.47l-0.44-0.44
		l-2.47-2.47l-0.44-0.44l-2.47-2.47l-0.44-0.44l-2.47-2.47l-0.44-0.44l-2.47-2.47l-0.44-0.44c-0.82-0.82-1.88-0.6-3.16,0.68
		l-0.68,0.68c-1.27,1.27-1.5,2.33-0.68,3.16l0.44,0.44l2.47,2.47l0.44,0.44l2.47,2.47c0.15,0.15,0.3,0.3,0.44,0.44
		C447.63,578.08,449.43,579.86,451.24,581.65z"/>
	<path class="st2" d="M433.03,546.96c0,0.21,0,0.42,0,0.63v3.5v0.63v3.5v0.63c-0.03,1.17,0.88,1.75,2.68,1.75h0.97
		c1.8,0,2.71-0.58,2.71-1.75v-0.63v-3.5v-0.63v-3.5v-0.63v-3.5v-0.63v-3.5v-0.63v-3.5v-0.63v-3.5v-0.63c0-1.16-0.9-1.75-2.71-1.75
		h-0.97c-1.8,0-2.71,0.58-2.71,1.75v0.63v3.5v0.63v3.5c0,0.21,0,0.42,0,0.63C433.01,541.87,433.02,544.41,433.03,546.96z"/>
</g>
<g>
	<path class="st2" d="M419.46,472.46c0.15,0.15,0.3,0.3,0.44,0.44l2.47,2.47l0.44,0.44l2.47,2.47l0.44,0.44
		c0.8,0.85,1.86,0.62,3.13-0.65l0.68-0.68c1.27-1.27,1.5-2.33,0.68-3.16l-0.44-0.44l-2.47-2.47l-0.44-0.44l-2.47-2.47l-0.44-0.44
		l-2.47-2.47l-0.44-0.44l-2.47-2.47l-0.44-0.44l-2.47-2.47l-0.44-0.44l-2.47-2.47l-0.44-0.44c-0.82-0.82-1.88-0.6-3.16,0.68
		l-0.68,0.68c-1.27,1.27-1.5,2.33-0.68,3.16l0.44,0.44l2.47,2.47l0.44,0.44l2.47,2.47c0.15,0.15,0.3,0.3,0.44,0.44
		C415.85,468.88,417.66,470.67,419.46,472.46z"/>
	<path class="st2" d="M378.19,453.37c-0.21,0-0.42,0-0.63,0h-3.5h-0.63h-3.5h-0.63c-1.17-0.03-1.75,0.88-1.75,2.68v0.97
		c0,1.8,0.58,2.71,1.75,2.71h0.63h3.5h0.63h3.5h0.63h3.5h0.63h3.5h0.63h3.5h0.63h3.5h0.63c1.16,0,1.75-0.9,1.75-2.71v-0.97
		c0-1.8-0.58-2.71-1.75-2.71h-0.63h-3.5h-0.63h-3.5c-0.21,0-0.42,0-0.63,0C383.27,453.35,380.73,453.36,378.19,453.37z"/>
</g>
<g>
	<path class="st2" d="M423.84,371.73c0,0.21,0,0.42,0,0.63v3.5v0.63v3.5v0.63c-0.03,1.17,0.88,1.75,2.68,1.75h0.97
		c1.8,0,2.71-0.58,2.71-1.75v-0.63v-3.5v-0.63v-3.5v-0.63v-3.5v-0.63v-3.5v-0.63v-3.5v-0.63v-3.5v-0.63c0-1.16-0.9-1.75-2.71-1.75
		h-0.97c-1.8,0-2.71,0.58-2.71,1.75v0.63v3.5v0.63v3.5c0,0.21,0,0.42,0,0.63C423.82,366.65,423.83,369.19,423.84,371.73z"/>
	<path class="st2" d="M377.94,413.64c-0.21,0-0.42,0-0.63,0h-3.5h-0.63h-3.5h-0.63c-1.17-0.03-1.75,0.88-1.75,2.68v0.97
		c0,1.8,0.58,2.71,1.75,2.71h0.63h3.5h0.63h3.5h0.63h3.5h0.63h3.5h0.63h3.5h0.63h3.5h0.63c1.16,0,1.75-0.9,1.75-2.71v-0.97
		c0-1.8-0.58-2.71-1.75-2.71h-0.63h-3.5h-0.63h-3.5c-0.21,0-0.42,0-0.63,0C383.02,413.62,380.48,413.63,377.94,413.64z"/>
	<path class="st2" d="M422.93,403.07c0.15-0.15,0.3-0.3,0.44-0.44l2.47-2.47l0.44-0.44l2.47-2.47l0.44-0.44
		c0.85-0.8,0.62-1.86-0.65-3.13l-0.68-0.68c-1.27-1.27-2.33-1.5-3.16-0.68l-0.44,0.44l-2.47,2.47l-0.44,0.44l-2.47,2.47l-0.44,0.44
		l-2.47,2.47l-0.44,0.44l-2.47,2.47l-0.44,0.44l-2.47,2.47l-0.44,0.44l-2.47,2.47l-0.44,0.44c-0.82,0.82-0.6,1.88,0.68,3.16
		l0.68,0.68c1.27,1.27,2.33,1.5,3.16,0.68l0.44-0.44l2.47-2.47l0.44-0.44l2.47-2.47c0.15-0.15,0.3-0.3,0.44-0.44
		C419.35,406.68,421.14,404.88,422.93,403.07z"/>
</g>
<g>
	<path class="st2" d="M530.81,593.69c0.21,0,0.42,0,0.63,0h3.5h0.63h3.5h0.63c1.17,0.03,1.75-0.88,1.75-2.68v-0.97
		c0-1.8-0.58-2.71-1.75-2.71h-0.63h-3.5h-0.63h-3.5h-0.63h-3.5h-0.63h-3.5h-0.63h-3.5h-0.63h-3.5h-0.63c-1.16,0-1.75,0.9-1.75,2.71
		v0.97c0,1.8,0.58,2.71,1.75,2.71h0.63h3.5h0.63h3.5c0.21,0,0.42,0,0.63,0C525.73,593.71,528.27,593.7,530.81,593.69z"/>
	<path class="st2" d="M566.93,575.07c0.15-0.15,0.3-0.3,0.44-0.44l2.47-2.47l0.44-0.44l2.47-2.47l0.44-0.44
		c0.85-0.8,0.62-1.86-0.65-3.13l-0.68-0.68c-1.27-1.27-2.33-1.5-3.16-0.68l-0.44,0.44l-2.47,2.47l-0.44,0.44l-2.47,2.47l-0.44,0.44
		l-2.47,2.47l-0.44,0.44l-2.47,2.47l-0.44,0.44l-2.47,2.47l-0.44,0.44l-2.47,2.47l-0.44,0.44c-0.82,0.82-0.6,1.88,0.68,3.16
		l0.68,0.68c1.27,1.27,2.33,1.5,3.16,0.68l0.44-0.44l2.47-2.47l0.44-0.44l2.47-2.47c0.15-0.15,0.3-0.3,0.44-0.44
		C563.35,578.68,565.14,576.87,566.93,575.07z"/>
	<path class="st2" d="M592.19,557.37c-0.21,0-0.42,0-0.63,0h-3.5h-0.63h-3.5h-0.63c-1.17-0.03-1.75,0.88-1.75,2.68v0.97
		c0,1.8,0.58,2.71,1.75,2.71h0.63h3.5h0.63h3.5h0.63h3.5h0.63h3.5h0.63h3.5h0.63h3.5h0.63c1.16,0,1.75-0.9,1.75-2.71v-0.97
		c0-1.8-0.58-2.71-1.75-2.71h-0.63h-3.5h-0.63h-3.5c-0.21,0-0.42,0-0.63,0C597.27,557.35,594.73,557.36,592.19,557.37z"/>
</g>
<g>
	<path class="st2" d="M504.97,284.35h-0.37c-0.7,0-1.04,0.35-1.04,1.04v0.37c0,0,0,1.04-1.04,1.04h-0.37c-0.7,0-1.04,0.35-1.04,1.04
		v0.37c0,0,0,1.04-1.04,1.04h-0.37h-2.09h-0.37h-2.08h-0.37h-2.08h-0.38c0,0-1.04,0-1.04-1.04v-0.37c0,0,0-1.04,1.04-1.04h0.37h2.08
		h0.37c0.7,0,1.04-0.35,1.04-1.04v-0.37c0-0.7-0.35-1.04-1.04-1.04h-0.37h-2.08h-0.38h-2.08h-0.37h-2.08h-0.37
		c-0.7,0-1.04,0.35-1.04,1.04v0.37v2.08v0.37c0,0.7,0.35,1.04,1.04,1.04h0.37c0,0,1.04,0,1.04,1.04v0.37c0,0,0,1.04-1.04,1.04h-0.37
		h-2.08h-0.37h-2.09h-0.37c0,0-1.04,0-1.04-1.04v-0.37v-2.08v-0.37c0-0.7-0.35-1.04-1.04-1.04h-0.37c-0.7,0.01-1.05,0.35-1.05,1.05
		v0.37v2.08v0.37v2.08v0.37c0,0.7,0.35,1.04,1.04,1.04h0.37h2.08h0.37c0,0,1.04,0,1.04,1.04v0.37c0,0.7,0.35,1.04,1.04,1.04h0.37
		c0.7,0,1.04-0.35,1.04-1.04v-0.37c0,0,0-1.04,1.04-1.04h0.37c0,0,1.04,0,1.04,1.04v0.37v2.08v0.37c0,0,0,1.04-1.04,1.04h-0.36
		h-2.08h-0.37c-0.7,0-1.04,0.35-1.04,1.04v0.37v2.1v0.37c0,0.7,0.35,1.04,1.04,1.04h0.37c0.7,0,1.04-0.35,1.04-1.04v-0.37
		c0,0,0-1.04,1.04-1.04h0.37h2.08h0.37c0.7,0,1.04-0.35,1.04-1.04v-0.37c0,0,0-1.04,1.04-1.04h0.37c0,0,1.04,0,1.04,1.04v0.37v2.08
		v0.37c0,0.7,0.35,1.04,1.04,1.04h0.37h2.08h0.37h2.08h0.37h2.08h0.37c0.7,0,1.04-0.35,1.04-1.04v-0.37c0-0.7-0.35-1.04-1.04-1.04
		h-0.37h-2.08h-0.37c0,0-1.04,0-1.04-1.04v-0.37c0-0.7-0.35-1.04-1.04-1.04h-0.37c0,0-1.04,0-1.04-1.04v-0.37v-2.08v-0.37
		c0,0,0-1.04,1.04-1.04h0.37c0,0,1.04,0,1.04,1.04v0.37c0,0.7,0.35,1.04,1.04,1.04h0.37c0,0,1.04,0,1.04,1.04v0.37
		c0,0.7,0.35,1.04,1.04,1.04h0.37c0.7,0,1.04-0.35,1.04-1.04v-0.37v-2.08v-0.37c0-0.7-0.35-1.04-1.04-1.04h-0.37
		c0,0-1.04,0-1.04-1.04v-0.37c0,0,0-1.04,1.04-1.04h0.37c0.7,0,1.04-0.35,1.04-1.04v-0.37c0,0,0-1.04,1.04-1.04h0.37
		c0.7,0,1.04-0.35,1.04-1.04v-0.37v-2.11v-0.37C506.02,284.7,505.67,284.35,504.97,284.35 M493.73,293.15c0,0,0,1.04-1.04,1.04
		h-0.38c0,0-1.04,0-1.04-1.04v-0.37c0,0,0-1.04,1.04-1.04h0.37c0,0,1.04,0,1.04,1.04L493.73,293.15L493.73,293.15z"/>
	<path class="st2" d="M477.84,315.83c0,0.1,0,0.2,0,0.3v1.69v0.3v1.69v0.3c-0.03,0.57,0.88,0.85,2.68,0.85h0.97
		c1.8,0,2.71-0.28,2.71-0.85v-0.3v-1.69v-0.3v-1.69v-0.3v-1.69v-0.3v-1.69v-0.3v-1.69v-0.3v-1.69v-0.3c0-0.56-0.9-0.85-2.71-0.85
		h-0.97c-1.8,0-2.71,0.28-2.71,0.85v0.3v1.69v0.3v1.69c0,0.1,0,0.2,0,0.3C477.82,313.37,477.83,314.6,477.84,315.83z"/>
	<path class="st2" d="M442.74,332.14c0.15-0.15,0.3-0.3,0.44-0.44l2.47-2.47l0.44-0.44l2.47-2.47l0.44-0.44
		c0.85-0.8,0.62-1.86-0.65-3.13l-0.68-0.68c-1.27-1.27-2.33-1.5-3.16-0.68l-0.44,0.44l-2.47,2.47l-0.44,0.44l-2.47,2.47l-0.44,0.44
		l-2.47,2.47l-0.44,0.44l-2.47,2.47l-0.44,0.44l-2.47,2.47l-0.44,0.44l-2.47,2.47l-0.44,0.44c-0.82,0.82-0.6,1.88,0.68,3.16
		l0.68,0.68c1.27,1.27,2.33,1.5,3.16,0.68l0.44-0.44l2.47-2.47l0.44-0.44l2.47-2.47c0.15-0.15,0.3-0.3,0.44-0.44
		C439.16,335.75,440.95,333.94,442.74,332.14z"/>
	<path class="st2" d="M465.99,316.44c-0.21,0-0.42,0-0.63,0h-3.5h-0.63h-3.5h-0.63c-1.17-0.03-1.75,0.88-1.75,2.68v0.97
		c0,1.8,0.58,2.71,1.75,2.71h0.63h3.5h0.63h3.5h0.63h3.5h0.63h3.5h0.63h3.5h0.63h3.5h0.63c1.16,0,1.75-0.9,1.75-2.71v-0.97
		c0-1.8-0.58-2.71-1.75-2.71h-0.63h-3.5h-0.63h-3.5c-0.21,0-0.42,0-0.63,0C471.08,316.42,468.53,316.43,465.99,316.44z"/>
</g>
<g>
	<path class="st2" d="M432.84,506.34c0,0.21,0,0.42,0,0.63v3.5v0.63v3.5v0.63c-0.03,1.17,0.88,1.75,2.68,1.75h0.97
		c1.8,0,2.71-0.58,2.71-1.75v-0.63v-3.5v-0.63v-3.5v-0.63v-3.5v-0.63v-3.5v-0.63v-3.5v-0.63v-3.5v-0.63c0-1.16-0.9-1.75-2.71-1.75
		h-0.97c-1.8,0-2.71,0.58-2.71,1.75v0.63v3.5v0.63v3.5c0,0.21,0,0.42,0,0.63C432.82,501.26,432.83,503.8,432.84,506.34z"/>
	<path class="st2" d="M352.84,440.34c0,0.21,0,0.42,0,0.63v3.5v0.63v3.5v0.63c-0.03,1.17,0.88,1.75,2.68,1.75h0.97
		c1.8,0,2.71-0.58,2.71-1.75v-0.63v-3.5v-0.63v-3.5v-0.63v-3.5v-0.63v-3.5v-0.63v-3.5v-0.63v-3.5v-0.63c0-1.16-0.9-1.75-2.71-1.75
		h-0.97c-1.8,0-2.71,0.58-2.71,1.75v0.63v3.5v0.63v3.5c0,0.21,0,0.42,0,0.63C352.82,435.26,352.83,437.8,352.84,440.34z"/>
</g>
</svg>
