<?xml version="1.0" encoding="UTF-8"?><svg id="Layer_1" xmlns="http://www.w3.org/2000/svg" viewBox="0 0 70.11 51.02"><defs><style>.cls-1{fill:#83f951;}</style></defs><path class="cls-1" d="m67.45,0h-.97c-1.81,0-2.7.9-2.7,2.7v.97s0,2.7-2.7,2.7h-.97c-1.81,0-2.7.9-2.7,2.7v.97s0,2.7-2.7,2.7h-20.12s-2.7,0-2.7-2.7v-.97s0-2.7,2.7-2.7h7.34c1.81,0,2.7-.9,2.7-2.7v-.97c0-1.81-.9-2.7-2.7-2.7h-20.08c-1.81,0-2.7.9-2.7,2.7v7.34c0,1.81.9,2.7,2.7,2.7h.97s2.7,0,2.7,2.7v.97s0,2.7-2.7,2.7h-13.72s-2.7,0-2.7-2.7v-7.34c0-1.81-.9-2.7-2.7-2.7h-.97c-1.82.01-2.72.91-2.72,2.72v13.71c0,1.81.9,2.7,2.7,2.7h7.34s2.7,0,2.7,2.7v.97c0,1.81.9,2.7,2.7,2.7h.97c1.81,0,2.7-.9,2.7-2.7v-.97s0-2.7,2.7-2.7h.97s2.7,0,2.7,2.7v7.34s0,2.7-2.7,2.7h-7.31c-1.81,0-2.7.9-2.7,2.7v7.38c0,1.81.9,2.7,2.7,2.7h.97c1.81,0,2.7-.9,2.7-2.7v-.97s0-2.7,2.7-2.7h7.34c1.81,0,2.7-.9,2.7-2.7v-.97s0-2.7,2.7-2.7h.97s2.7,0,2.7,2.7v7.34c0,1.81.9,2.7,2.7,2.7h20.08c1.81,0,2.7-.9,2.7-2.7v-.97c0-1.81-.9-2.7-2.7-2.7h-7.34s-2.7,0-2.7-2.7v-.97c0-1.81-.9-2.7-2.7-2.7h-.97s-2.7,0-2.7-2.7v-7.34s0-2.7,2.7-2.7h.97s2.7,0,2.7,2.7v.97c0,1.81.9,2.7,2.7,2.7h.97s2.7,0,2.7,2.7v.97c0,1.81.9,2.7,2.7,2.7h.97c1.81,0,2.7-.9,2.7-2.7v-7.34c0-1.81-.9-2.7-2.7-2.7h-.97s-2.7,0-2.7-2.7v-.97s0-2.7,2.7-2.7h.97c1.81,0,2.7-.9,2.7-2.7v-.97s0-2.7,2.7-2.7h.97c1.81,0,2.7-.9,2.7-2.7V2.7c.04-1.79-.85-2.7-2.66-2.7m-29.18,22.81s0,2.7-2.7,2.7h-.98s-2.7,0-2.7-2.7v-.97s0-2.7,2.7-2.7h.97s2.7,0,2.7,2.7v.97h.01Z"/></svg>