<?xml version="1.0" encoding="UTF-8"?>
<svg id="uuid-8916d03d-8a00-4dc1-b0fc-af8a316ef020" data-name="Layer 1" xmlns="http://www.w3.org/2000/svg" viewBox="0 0 389.18 389.18">
  <defs>
    <style>
      .uuid-37c32316-3d09-4a34-877a-efee42ce565b {
        fill: none;
        stroke: lime;
      }

      .uuid-37c32316-3d09-4a34-877a-efee42ce565b, .uuid-073e7b46-6d98-4ca2-ab18-de55aac20c91 {
        stroke-miterlimit: 10;
      }

      .uuid-073e7b46-6d98-4ca2-ab18-de55aac20c91 {
        stroke: #262261;
        stroke-width: 2px;
      }

      .uuid-1b7e3a11-2333-4208-9e02-0a0e11eb4f23 {
        fill: #262261;
      }
    </style>
  </defs>
  <circle class="uuid-073e7b46-6d98-4ca2-ab18-de55aac20c91" cx="194.59" cy="194.59" r="193.58"/>
  <circle class="uuid-37c32316-3d09-4a34-877a-efee42ce565b" cx="194.59" cy="194.59" r="161.12"/>
  <path class="uuid-1b7e3a11-2333-4208-9e02-0a0e11eb4f23" d="M157.19,242.29c-12.12,6.2-21.1,14.42-29.33,23.56-3.98,4.42-7.95,8.86-11.6,13.54-3.54,4.53-7.39,5.04-12.32,2.43-6.55-3.48-10.03-7.98-8.77-13.24,.84-3.51,2.19-7.19,4.32-10.05,10.8-14.5,13.99-31.19,14.39-48.65,.31-13.73,0-27.47,.21-41.21,.09-5.38-2.06-8.09-7.3-9.53-7.27-2-14.57-4.26-21.42-7.39-12.06-5.52-13.71-15.46-4.96-25.18,3.64-4.04,7.8-4.87,12.76-3.32,4.22,1.33,8.46,2.61,13.87,4.27-.88-3.76-1.46-6.44-2.14-9.11-1.31-5.15-3-10.22-3.93-15.43-1.8-10.13,1.26-14.7,10.87-17.17,11.52-2.96,17.21-.6,20.52,9.31,3.37,10.07,6.39,20.28,9.09,30.56,1.19,4.53,3.66,6.41,7.82,5.38,7.9-1.96,15.94-3.75,23.46-6.78,19.42-7.83,37.79-17.63,54.4-30.62,14.8-11.57,28.49-10.31,41.29,3.19,14.55,15.34,25.19,32.82,32.9,52.72,8.62,22.23,12.23,44.86,12,68.41-.03,3.07-.22,6.19,.2,9.22,3.19,23.04-4.2,44.03-12.46,64.84-2.69,6.79-6.56,9.49-12.26,8.88-5.01-.54-14.42-8.17-14.97-12.44-.19-1.5,.18-3.34,.94-4.64,11.64-20,15.42-41.51,12.79-64.36-2.15-18.69-2.79-37.77-11.2-55.03-6.8-13.95-14.69-27.38-22.26-40.95-1.26-2.26-3.32-4.06-5.33-6.46-11.43,6.61-22.6,12.99-33.69,19.5-16.46,9.66-33.32,18.42-51.97,23.07-3.96,.99-8.13,1.13-12.04,2.25-1.83,.52-4.55,2.28-4.7,3.71-1.37,12.78-2.26,25.6-3.37,39.52,9.71-1.81,18.27-3.18,26.69-5.17,1.78-.42,3.3-2.92,4.48-4.76,12.95-20.09,30.2-36.04,48.71-50.77,.32-.26,.66-.49,1-.72,11.27-7.5,15.12-7.27,24.04,2.93,15.07,17.25,22.38,38.15,25.08,60.34,2.5,20.61,.92,41.36-4,61.64-2.59,10.71-8.35,12.88-17.42,6.44-3.89-2.76-7.76-6.48-9.82-10.67-4.03-8.17-10.06-13.85-17.77-18.04-6.28-3.41-12.57-6.89-19.14-9.66-9.01-3.8-11.52-2.74-14.18,6.79-2.4,8.63-3.73,17.58-5.3,26.42-1.04,5.83-1.44,11.79-2.6,17.59-.63,3.14-1.78,6.39-3.53,9.04-6.11,9.19-14.63,9.47-21.65,1-5.1-6.14-7.38-12.96-5.88-21.09,2-10.82,3.53-21.72,5.5-34.1Zm88.23-18.12c.59-.26,1.18-.52,1.77-.78-2.8-17.11-6.9-33.88-13.15-50.06-.77-.07-1.53-.14-2.3-.21-7.84,9.78-15.67,19.55-23.68,29.55,13.06,7.52,25.21,14.51,37.36,21.5Z"/>
</svg>