<?xml version="1.0" encoding="UTF-8"?>
<svg id="uuid-c51081cf-28f5-43c8-8b95-a9fde78e77cb" data-name="Layer 1" xmlns="http://www.w3.org/2000/svg" viewBox="0 0 389.16 389.16">
  <defs>
    <style>
      .uuid-a3ab0009-029a-402f-8c03-0f12c13b5056 {
        fill: none;
        stroke: lime;
      }

      .uuid-a3ab0009-029a-402f-8c03-0f12c13b5056, .uuid-52c32b85-760f-4585-8d1c-d642e5809b87 {
        stroke-miterlimit: 10;
      }

      .uuid-52c32b85-760f-4585-8d1c-d642e5809b87 {
        stroke: #262261;
        stroke-width: 2px;
      }

      .uuid-584f1eed-8a4e-4d97-9279-66ec7d4f9555 {
        fill: #262261;
      }
    </style>
  </defs>
  <circle class="uuid-52c32b85-760f-4585-8d1c-d642e5809b87" cx="194.58" cy="194.58" r="193.58"/>
  <circle class="uuid-a3ab0009-029a-402f-8c03-0f12c13b5056" cx="194.58" cy="194.58" r="161.12"/>
  <path class="uuid-584f1eed-8a4e-4d97-9279-66ec7d4f9555" d="M234.88,138.77c-3.2,2.28-6.65,4.28-9.54,6.9-11.24,10.17-22.36,20.46-33.35,30.9-1.43,1.36-2.61,3.85-2.54,5.77,.67,17.92-5.08,34.64-8.8,51.8-5.92,27.3-25.58,44.14-44.99,61.11-7.22,6.31-13.45,3.72-19.96-4.14-15.63-18.87-23.77-41.03-29.67-64.28-.93-3.65-1.6-7.44-1.79-11.19-.46-9.19,1.7-16.33,11.25-21.2,17.83-9.1,34.9-19.68,52.26-29.69,1.73-1,3.19-2.44,4.89-3.5,6.38-3.99,8.85-9.04,4.88-16.19-5.26-9.46-10.22-19.09-15.66-28.44-3.47-5.95-8.11-11.33-6.15-19,2.31-9.06,9.34-12.57,16.4-6.69,6.67,5.56,12.3,12.7,17.22,19.94,5.48,8.06,9.62,17.02,14.4,25.56,.41,.73,1.23,1.22,2.5,2.44,5.07-4.01,10.42-7.6,15.01-11.99,11.58-11.1,22.8-22.56,34.19-33.86,3-2.98,5.87-6.16,9.16-8.78,7.49-5.98,15.77-6.43,22.84-1.63,6.43,4.36,9.06,13.55,6.75,22.16-3.22,11.98-7.71,23.87-8.93,36.08-3.19,31.99,2.96,63.03,13.77,93.03,2.39,6.63,7.84,12.3,12.44,17.96,10.96,13.49,7.85,18.49-4.57,30.22-1.3,1.22-4.54,.6-6.87,.48-14.41-.76-28.91-2.98-43.19-1.95-9.09,.66-17.95,5.82-26.7,9.47-6.13,2.56-11.73,6.41-17.89,8.89-6.12,2.46-15.59-2.43-17.32-8.69-.49-1.78,.52-4.31,1.52-6.12,6.03-10.91,12.12-21.81,18.47-32.54,6.2-10.47,7.67-21.6,6.07-33.48-.59-4.36-1.43-9.38,.15-13.14,1.69-4.02,5.51-8.34,9.45-9.92,4.96-1.99,9.33,1.81,11.92,6.41,5.95,10.59,6.27,22.1,5.16,33.8-.34,3.55-.62,7.13-1.35,10.6-1.26,5.94,1.24,7.67,6.81,7.11,18.36-1.84,19.74-3.99,14.24-21.31-8.44-26.56-12.81-53.63-9.93-81.6,.35-3.4-.23-6.89-.38-10.34-.72-.32-1.44-.64-2.15-.96Zm-72.54,54.11c-2.95,.49-3.66,.46-4.21,.72-14.21,6.82-28.45,13.58-42.53,20.65-1.38,.69-2.49,3.35-2.51,5.1-.14,16.33,8.18,29.16,17.65,41.43,2.48,3.21,4.65,1.62,7.22-.48,11.84-9.69,16.19-22.87,18.42-37.32,1.51-9.77,3.81-19.42,5.96-30.1Z"/>
</svg>